<?xml version="1.0" encoding="utf-8"?>
<!-- Generator: Adobe Illustrator 27.2.0, SVG Export Plug-In . SVG Version: 6.00 Build 0)  -->
<svg version="1.1" id="Layer_1" xmlns="http://www.w3.org/2000/svg" xmlns:xlink="http://www.w3.org/1999/xlink" x="0px" y="0px"
	 viewBox="0 0 4960.63 2834.65" style="enable-background:new 0 0 4960.63 2834.65;" xml:space="preserve">
<style type="text/css">
	.st0{opacity:0.15;clip-path:url(#SVGID_00000027601615438496601370000009743180565750274740_);}
	.st1{fill:#454545;}
</style>
<g>
	<defs>
		<rect id="SVGID_1_" x="2380.67" y="1278.67" width="157.22" height="240.4"/>
	</defs>
	<clipPath id="SVGID_00000029004897214003644000000006677690013285863869_">
		<use xlink:href="#SVGID_1_"  style="overflow:visible;"/>
	</clipPath>
	<g style="opacity:0.15;clip-path:url(#SVGID_00000029004897214003644000000006677690013285863869_);">
		<g>
			<g>
				<rect x="2336.83" y="1265.58" class="st1" width="1.21" height="50.95"/>
			</g>
			<g>
				<path class="st1" d="M2340.76,1319.54c0,1.83-1.49,3.32-3.32,3.32c-1.83,0-3.32-1.49-3.32-3.32c0-1.83,1.49-3.32,3.32-3.32
					C2339.27,1316.23,2340.76,1317.71,2340.76,1319.54z M2335.31,1319.54c0,1.18,0.95,2.12,2.12,2.12c1.16,0,2.12-0.94,2.12-2.12
					c0-1.17-0.96-2.11-2.12-2.11C2336.26,1317.43,2335.31,1318.37,2335.31,1319.54z"/>
			</g>
			<g>
				<path class="st1" d="M2338.04,1399.22c0,1.83-1.49,3.32-3.32,3.32c-1.82,0-3.3-1.49-3.3-3.32c0-1.83,1.48-3.32,3.3-3.32
					C2336.55,1395.89,2338.04,1397.38,2338.04,1399.22z M2332.62,1399.22c0,1.17,0.94,2.11,2.1,2.11s2.11-0.94,2.11-2.11
					s-0.96-2.12-2.11-2.12S2332.62,1398.05,2332.62,1399.22z"/>
			</g>
			<g>
				<path class="st1" d="M2351.57,1345.8c0,1.83-1.49,3.32-3.32,3.32c-1.83,0-3.32-1.49-3.32-3.32c0-1.83,1.49-3.31,3.32-3.31
					C2350.08,1342.48,2351.57,1343.96,2351.57,1345.8z M2346.12,1345.8c0,1.17,0.95,2.11,2.12,2.11c1.18,0,2.11-0.93,2.11-2.11
					c0-1.16-0.96-2.11-2.11-2.11C2347.07,1343.69,2346.12,1344.64,2346.12,1345.8z"/>
			</g>
			<g>
				<path class="st1" d="M2338.04,1371.52c0,1.83-1.49,3.32-3.32,3.32c-1.82,0-3.3-1.49-3.3-3.32c0-1.83,1.48-3.32,3.3-3.32
					C2336.55,1368.2,2338.04,1369.69,2338.04,1371.52z M2332.62,1371.52c0,1.18,0.94,2.12,2.1,2.12s2.11-0.94,2.11-2.12
					c0-1.17-0.96-2.11-2.11-2.11S2332.62,1370.35,2332.62,1371.52z"/>
			</g>
			<g>
				<path class="st1" d="M2338.04,1382.31c0,1.83-1.49,3.32-3.32,3.32c-1.82,0-3.3-1.49-3.3-3.32c0-1.83,1.48-3.32,3.3-3.32
					C2336.55,1378.98,2338.04,1380.47,2338.04,1382.31z M2332.62,1382.31c0,1.17,0.94,2.12,2.1,2.12s2.11-0.95,2.11-2.12
					c0-1.17-0.96-2.11-2.11-2.11S2332.62,1381.14,2332.62,1382.31z"/>
			</g>
			<g>
				<path class="st1" d="M2365.09,1382.31c0,1.83-1.49,3.32-3.32,3.32c-1.83,0-3.32-1.49-3.32-3.32c0-1.83,1.49-3.32,3.32-3.32
					C2363.6,1378.98,2365.09,1380.47,2365.09,1382.31z M2359.65,1382.31c0,1.17,0.94,2.12,2.12,2.12c1.16,0,2.11-0.95,2.11-2.12
					c0-1.17-0.96-2.11-2.11-2.11C2360.59,1380.19,2359.65,1381.14,2359.65,1382.31z"/>
			</g>
			<g>
				<path class="st1" d="M2408.32,1310.68c0,1.83-1.48,3.31-3.29,3.31c-1.83,0-3.32-1.48-3.32-3.31c0-1.83,1.49-3.32,3.32-3.32
					C2406.84,1307.36,2408.32,1308.85,2408.32,1310.68z M2402.9,1310.68c0,1.19,0.92,2.11,2.12,2.11c1.15,0,2.09-0.94,2.09-2.11
					c0-1.17-0.94-2.11-2.09-2.11C2403.85,1308.56,2402.9,1309.51,2402.9,1310.68z"/>
			</g>
			<g>
				<path class="st1" d="M2405.62,1293.49c0,1.83-1.49,3.32-3.32,3.32c-1.83,0-3.32-1.49-3.32-3.32c0-1.83,1.49-3.31,3.32-3.31
					C2404.13,1290.17,2405.62,1291.65,2405.62,1293.49z M2400.18,1293.49c0,1.18,0.92,2.11,2.11,2.11c1.16,0,2.12-0.94,2.12-2.11
					c0-1.16-0.96-2.11-2.12-2.11C2401.13,1291.38,2400.18,1292.33,2400.18,1293.49z"/>
			</g>
			<g>
				<path class="st1" d="M2405.62,1324.97c0,1.83-1.49,3.31-3.32,3.31c-1.83,0-3.32-1.48-3.32-3.31c0-1.83,1.49-3.31,3.32-3.31
					C2404.13,1321.66,2405.62,1323.14,2405.62,1324.97z M2400.18,1324.97c0,1.18,0.92,2.1,2.11,2.1c1.16,0,2.12-0.94,2.12-2.1
					s-0.96-2.11-2.12-2.11C2401.1,1322.87,2400.18,1323.79,2400.18,1324.97z"/>
			</g>
			<g>
				<path class="st1" d="M2394.79,1324.52c0,1.83-1.48,3.31-3.29,3.31c-1.83,0-3.32-1.48-3.32-3.31c0-1.83,1.49-3.31,3.32-3.31
					C2393.31,1321.21,2394.79,1322.69,2394.79,1324.52z M2389.38,1324.52c0,1.18,0.93,2.11,2.12,2.11c1.15,0,2.09-0.95,2.09-2.11
					c0-1.16-0.94-2.11-2.09-2.11C2390.3,1322.42,2389.38,1323.34,2389.38,1324.52z"/>
			</g>
			<g>
				<path class="st1" d="M2394.79,1374.25c0,1.83-1.48,3.31-3.29,3.31c-1.83,0-3.32-1.48-3.32-3.31c0-1.83,1.49-3.32,3.32-3.32
					C2393.31,1370.92,2394.79,1372.41,2394.79,1374.25z M2389.38,1374.25c0,1.16,0.94,2.1,2.12,2.1c1.15,0,2.09-0.94,2.09-2.1
					c0-1.18-0.94-2.12-2.09-2.12C2390.3,1372.13,2389.38,1373.06,2389.38,1374.25z"/>
			</g>
			<g>
				<path class="st1" d="M2408.32,1360.93c0,1.83-1.48,3.32-3.29,3.32c-1.83,0-3.32-1.49-3.32-3.32c0-1.83,1.49-3.32,3.32-3.32
					C2406.84,1357.61,2408.32,1359.1,2408.32,1360.93z M2402.9,1360.93c0,1.17,0.94,2.11,2.12,2.11c1.15,0,2.09-0.94,2.09-2.11
					c0-1.18-0.94-2.12-2.09-2.12C2403.85,1358.81,2402.9,1359.76,2402.9,1360.93z"/>
			</g>
			<g>
				<path class="st1" d="M2381.29,1360.93c0,1.83-1.49,3.32-3.32,3.32c-1.83,0-3.32-1.49-3.32-3.32c0-1.83,1.49-3.32,3.32-3.32
					C2379.8,1357.61,2381.29,1359.1,2381.29,1360.93z M2375.85,1360.93c0,1.17,0.95,2.11,2.12,2.11c1.16,0,2.11-0.94,2.11-2.11
					c0-1.18-0.96-2.12-2.11-2.12C2376.8,1358.81,2375.85,1359.76,2375.85,1360.93z"/>
			</g>
			<g>
				<path class="st1" d="M2383.99,1449.09c0,1.84-1.49,3.32-3.32,3.32c-1.82,0-3.3-1.48-3.3-3.32c0-1.83,1.48-3.32,3.3-3.32
					C2382.5,1445.77,2383.99,1447.26,2383.99,1449.09z M2378.57,1449.09c0,1.18,0.94,2.11,2.1,2.11s2.12-0.94,2.12-2.11
					c0-1.16-0.96-2.11-2.12-2.11S2378.57,1447.93,2378.57,1449.09z"/>
			</g>
			<g>
				<path class="st1" d="M2383.99,1351.92c0,1.83-1.48,3.31-3.3,3.31c-1.83,0-3.32-1.48-3.32-3.31c0-1.83,1.49-3.32,3.32-3.32
					C2382.51,1348.6,2383.99,1350.09,2383.99,1351.92z M2378.57,1351.92c0,1.16,0.95,2.1,2.12,2.1c1.15,0,2.1-0.94,2.1-2.1
					c0-1.18-0.95-2.12-2.1-2.12C2379.49,1349.8,2378.57,1350.74,2378.57,1351.92z"/>
			</g>
			<g>
				<path class="st1" d="M2373.18,1425.7c0,1.83-1.49,3.32-3.32,3.32c-1.82,0-3.3-1.5-3.3-3.32c0-1.83,1.48-3.32,3.3-3.32
					C2371.69,1422.38,2373.18,1423.88,2373.18,1425.7z M2367.76,1425.7c0,1.18,0.93,2.11,2.09,2.11s2.12-0.94,2.12-2.11
					s-0.96-2.11-2.12-2.11S2367.76,1424.53,2367.76,1425.7z"/>
			</g>
			<g>
				<path class="st1" d="M2373.18,1443.61c0,1.83-1.49,3.32-3.32,3.32c-1.82,0-3.3-1.5-3.3-3.32c0-1.83,1.48-3.32,3.3-3.32
					C2371.69,1440.28,2373.18,1441.78,2373.18,1443.61z M2367.76,1443.61c0,1.18,0.93,2.11,2.09,2.11s2.12-0.94,2.12-2.11
					c0-1.17-0.96-2.11-2.12-2.11S2367.76,1442.43,2367.76,1443.61z"/>
			</g>
			<g>
				<path class="st1" d="M2394.79,1518.41c0,1.83-1.48,3.32-3.29,3.32c-1.83,0-3.32-1.5-3.32-3.32c0-1.83,1.49-3.32,3.32-3.32
					C2393.31,1515.08,2394.79,1516.58,2394.79,1518.41z M2389.38,1518.41c0,1.17,0.96,2.11,2.12,2.11c1.16,0,2.09-0.94,2.09-2.11
					c0-1.18-0.93-2.11-2.09-2.11C2390.33,1516.3,2389.38,1517.23,2389.38,1518.41z"/>
			</g>
			<g>
				<path class="st1" d="M2405.62,1428.42c0,1.84-1.49,3.32-3.32,3.32c-1.83,0-3.32-1.48-3.32-3.32c0-1.83,1.49-3.32,3.32-3.32
					C2404.13,1425.1,2405.62,1426.59,2405.62,1428.42z M2400.18,1428.42c0,1.18,0.94,2.11,2.11,2.11c1.16,0,2.12-0.94,2.12-2.11
					c0-1.16-0.96-2.11-2.12-2.11C2401.13,1426.31,2400.18,1427.26,2400.18,1428.42z"/>
			</g>
			<g>
				<path class="st1" d="M2383.99,1495.94c0,1.84-1.48,3.32-3.3,3.32c-1.83,0-3.32-1.48-3.32-3.32c0-1.83,1.49-3.31,3.32-3.31
					C2382.51,1492.62,2383.99,1494.11,2383.99,1495.94z M2378.57,1495.94c0,1.18,0.96,2.12,2.12,2.12c1.16,0,2.1-0.95,2.1-2.12
					c0-1.16-0.94-2.11-2.1-2.11C2379.53,1493.82,2378.57,1494.77,2378.57,1495.94z"/>
			</g>
			<g>
				<path class="st1" d="M2383.99,1537.96c0,1.84-1.48,3.32-3.3,3.32c-1.83,0-3.32-1.48-3.32-3.32c0-1.83,1.49-3.32,3.32-3.32
					C2382.51,1534.64,2383.99,1536.13,2383.99,1537.96z M2378.57,1537.96c0,1.17,0.96,2.12,2.12,2.12c1.16,0,2.1-0.95,2.1-2.12
					c0-1.16-0.94-2.11-2.1-2.11C2379.53,1535.85,2378.57,1536.8,2378.57,1537.96z"/>
			</g>
			<g>
				<path class="st1" d="M2351.57,1416.93c0,1.83-1.49,3.32-3.32,3.32c-1.83,0-3.32-1.49-3.32-3.32s1.49-3.32,3.32-3.32
					C2350.08,1413.61,2351.57,1415.1,2351.57,1416.93z M2346.12,1416.93c0,1.17,0.95,2.12,2.12,2.12c1.16,0,2.11-0.95,2.11-2.12
					s-0.96-2.12-2.11-2.12C2347.07,1414.81,2346.12,1415.76,2346.12,1416.93z"/>
			</g>
			<g>
				<path class="st1" d="M2365.09,1458.55c0,1.83-1.49,3.32-3.32,3.32c-1.83,0-3.32-1.5-3.32-3.32c0-1.83,1.49-3.32,3.32-3.32
					C2363.6,1455.23,2365.09,1456.72,2365.09,1458.55z M2359.65,1458.55c0,1.18,0.94,2.11,2.12,2.11c1.16,0,2.11-0.94,2.11-2.11
					c0-1.18-0.96-2.11-2.11-2.11C2360.59,1456.44,2359.65,1457.38,2359.65,1458.55z"/>
			</g>
			<g>
				<path class="st1" d="M2351.57,1467.94c0,1.83-1.49,3.32-3.32,3.32c-1.82,0-3.3-1.5-3.3-3.32c0-1.84,1.48-3.32,3.3-3.32
					C2350.08,1464.62,2351.57,1466.1,2351.57,1467.94z M2346.15,1467.94c0,1.16,0.94,2.11,2.1,2.11c1.16,0,2.11-0.95,2.11-2.11
					c0-1.18-0.96-2.11-2.11-2.11C2347.08,1465.83,2346.15,1466.77,2346.15,1467.94z"/>
			</g>
			<g>
				<path class="st1" d="M2362.37,1509.75c0,1.83-1.49,3.32-3.32,3.32c-1.82,0-3.29-1.5-3.29-3.32c0-1.84,1.48-3.32,3.29-3.32
					C2360.88,1506.43,2362.37,1507.91,2362.37,1509.75z M2356.95,1509.75c0,1.16,0.93,2.11,2.09,2.11c1.16,0,2.12-0.95,2.12-2.11
					c0-1.17-0.96-2.11-2.12-2.11C2357.89,1507.64,2356.95,1508.58,2356.95,1509.75z"/>
			</g>
			<g>
				<path class="st1" d="M2351.57,1526.97c0,1.83-1.49,3.32-3.32,3.32c-1.82,0-3.3-1.5-3.3-3.32c0-1.83,1.48-3.32,3.3-3.32
					C2350.08,1523.64,2351.57,1525.14,2351.57,1526.97z M2346.15,1526.97c0,1.17,0.94,2.11,2.1,2.11c1.16,0,2.11-0.94,2.11-2.11
					c0-1.18-0.96-2.11-2.11-2.11C2347.08,1524.85,2346.15,1525.79,2346.15,1526.97z"/>
			</g>
			<g>
				<path class="st1" d="M2373.18,1565.56c0,1.83-1.49,3.32-3.32,3.32c-1.82,0-3.3-1.5-3.3-3.32s1.48-3.32,3.3-3.32
					C2371.69,1562.24,2373.18,1563.73,2373.18,1565.56z M2367.76,1565.56c0,1.17,0.93,2.11,2.09,2.11c1.18,0,2.12-0.93,2.12-2.11
					c0-1.16-0.96-2.11-2.12-2.11S2367.76,1564.4,2367.76,1565.56z"/>
			</g>
			<g>
				<path class="st1" d="M2340.76,1463.98c0,1.84-1.49,3.32-3.32,3.32c-1.83,0-3.32-1.48-3.32-3.32c0-1.83,1.49-3.32,3.32-3.32
					C2339.27,1460.65,2340.76,1462.15,2340.76,1463.98z M2335.31,1463.98c0,1.18,0.95,2.11,2.12,2.11c1.16,0,2.12-0.94,2.12-2.11
					c0-1.16-0.96-2.11-2.12-2.11C2336.26,1461.86,2335.31,1462.81,2335.31,1463.98z"/>
			</g>
			<g>
				<path class="st1" d="M2340.76,1553.6c0,1.84-1.49,3.32-3.32,3.32c-1.83,0-3.32-1.48-3.32-3.32c0-1.83,1.49-3.32,3.32-3.32
					C2339.27,1550.27,2340.76,1551.77,2340.76,1553.6z M2335.31,1553.6c0,1.18,0.96,2.11,2.12,2.11s2.12-0.94,2.12-2.11
					c0-1.16-0.96-2.11-2.12-2.11S2335.31,1552.43,2335.31,1553.6z"/>
			</g>
			<g>
				<path class="st1" d="M2351.57,1452.7c0,1.83-1.49,3.32-3.32,3.32c-1.82,0-3.3-1.5-3.3-3.32s1.48-3.32,3.3-3.32
					C2350.08,1449.38,2351.57,1450.87,2351.57,1452.7z M2346.15,1452.7c0,1.18,0.94,2.11,2.1,2.11c1.16,0,2.11-0.94,2.11-2.11
					s-0.96-2.11-2.11-2.11C2347.08,1450.59,2346.15,1451.52,2346.15,1452.7z"/>
			</g>
			<g>
				<path class="st1" d="M2362.37,1415.73c0,1.83-1.49,3.32-3.32,3.32c-1.82,0-3.29-1.49-3.29-3.32c0-1.83,1.48-3.32,3.29-3.32
					C2360.88,1412.4,2362.37,1413.89,2362.37,1415.73z M2356.95,1415.73c0,1.17,0.93,2.11,2.09,2.11c1.16,0,2.12-0.94,2.12-2.11
					s-0.96-2.12-2.12-2.12C2357.89,1413.61,2356.95,1414.56,2356.95,1415.73z"/>
			</g>
			<g>
				<path class="st1" d="M2362.37,1305.76c0,1.83-1.49,3.31-3.32,3.31c-1.82,0-3.29-1.48-3.29-3.31c0-1.83,1.48-3.32,3.29-3.32
					C2360.88,1302.44,2362.37,1303.93,2362.37,1305.76z M2356.95,1305.76c0,1.16,0.93,2.1,2.09,2.1c1.16,0,2.12-0.94,2.12-2.1
					c0-1.19-0.93-2.12-2.12-2.12C2357.89,1303.64,2356.95,1304.59,2356.95,1305.76z"/>
			</g>
			<g>
				<rect x="2347.64" y="1265.58" class="st1" width="1.2" height="77.94"/>
			</g>
			<g>
				<rect x="2358.44" y="1265.58" class="st1" width="1.2" height="37.45"/>
			</g>
			<g>
				<polygon class="st1" points="2370.46,1265.58 2370.46,1328.72 2359.65,1328.72 2359.65,1372.13 2337.43,1372.13 
					2337.43,1370.92 2358.44,1370.92 2358.44,1327.51 2369.25,1327.51 2369.25,1265.58 				"/>
			</g>
			<g>
				<polygon class="st1" points="2381.29,1265.58 2381.29,1346.78 2370.46,1346.78 2370.46,1391.05 2359.65,1391.05 
					2359.65,1410.72 2347.64,1410.72 2347.64,1399.82 2337.43,1399.82 2337.43,1398.61 2348.84,1398.61 2348.84,1409.52 
					2358.44,1409.52 2358.44,1389.84 2369.25,1389.84 2369.25,1345.57 2380.08,1345.57 2380.08,1265.58 				"/>
			</g>
			<g>
				<polygon class="st1" points="2402.3,1310.08 2402.3,1311.28 2390.89,1311.28 2390.89,1265.58 2392.09,1265.58 2392.09,1310.08 
									"/>
			</g>
			<g>
				<rect x="2390.89" y="1326.87" class="st1" width="1.2" height="44.65"/>
			</g>
			<g>
				<polygon class="st1" points="2381.29,1354.38 2381.29,1402.54 2370.46,1402.54 2370.46,1422.98 2369.25,1422.98 
					2369.25,1401.33 2380.08,1401.33 2380.08,1354.38 				"/>
			</g>
			<g>
				<polygon class="st1" points="2359.04,1457.95 2359.04,1459.16 2336.83,1459.16 2336.83,1438.66 2347.64,1438.66 
					2347.64,1419.58 2348.84,1419.58 2348.84,1439.85 2338.04,1439.85 2338.04,1457.95 				"/>
			</g>
			<g>
				<polygon class="st1" points="2359.65,1418.44 2359.65,1445.04 2348.84,1445.04 2348.84,1449.98 2347.64,1449.98 
					2347.64,1443.83 2358.44,1443.83 2358.44,1418.44 				"/>
			</g>
			<g>
				<polygon class="st1" points="2392.09,1466.91 2392.09,1515.69 2390.89,1515.69 2390.89,1468.12 2381.29,1468.12 
					2381.29,1481.86 2369.25,1481.86 2369.25,1446.33 2370.46,1446.33 2370.46,1480.66 2380.08,1480.66 2380.08,1466.91 				"/>
			</g>
			<g>
				<polygon class="st1" points="2381.29,1498.67 2381.29,1512.64 2370.46,1512.64 2370.46,1522.03 2381.27,1522.03 
					2381.27,1535.24 2380.06,1535.24 2380.06,1523.23 2369.25,1523.23 2369.25,1511.43 2380.08,1511.43 2380.08,1498.67 				"/>
			</g>
			<g>
				<polygon class="st1" points="2348.84,1495.34 2348.84,1519.01 2338.04,1519.01 2338.04,1550.88 2336.83,1550.88 2336.83,1517.8 
					2347.64,1517.8 2347.64,1496.54 2336.83,1496.54 2336.83,1466.87 2338.04,1466.87 2338.04,1495.34 				"/>
			</g>
			<g>
				<polygon class="st1" points="2359.65,1488.47 2359.65,1507.24 2358.44,1507.24 2358.44,1489.68 2347.64,1489.68 
					2347.64,1470.66 2348.84,1470.66 2348.84,1488.47 				"/>
			</g>
			<g>
				<polygon class="st1" points="2370.46,1537.78 2370.46,1562.13 2369.25,1562.13 2369.25,1538.99 2359.65,1538.99 2359.65,1547.7 
					2347.64,1547.7 2347.64,1529.69 2348.84,1529.69 2348.84,1546.5 2358.44,1546.5 2358.44,1537.78 				"/>
			</g>
			<g>
				<rect x="2401.7" y="1265.58" class="st1" width="1.2" height="25.2"/>
			</g>
			<g>
				<polygon class="st1" points="2413.71,1353.52 2413.71,1377.18 2402.9,1377.18 2402.9,1399.37 2392.09,1399.37 2392.09,1424.35 
					2381.27,1424.35 2381.27,1446.33 2380.06,1446.33 2380.06,1423.14 2390.89,1423.14 2390.89,1398.17 2401.7,1398.17 
					2401.7,1375.97 2412.51,1375.97 2412.51,1354.72 2401.7,1354.72 2401.7,1327.63 2402.9,1327.63 2402.9,1353.52 				"/>
			</g>
			<g>
				<rect x="2337.43" y="1381.71" class="st1" width="21.61" height="1.2"/>
			</g>
			<g>
				<rect x="2380.66" y="1360.33" class="st1" width="21.64" height="1.2"/>
			</g>
			<g>
				<polygon class="st1" points="2413.71,1457.79 2413.71,1492.72 2402.9,1492.72 2402.9,1526.48 2392.09,1526.48 2392.09,1568.76 
					2390.89,1568.76 2390.89,1525.28 2401.7,1525.28 2401.7,1491.5 2412.51,1491.5 2412.51,1459 2401.7,1459 2401.7,1431.24 
					2402.9,1431.24 2402.9,1457.79 				"/>
			</g>
			<g>
				<rect x="2401.7" y="1466.24" class="st1" width="1.2" height="17.05"/>
			</g>
		</g>
		<g>
			<g>
				<path class="st1" d="M2594.34,1523.18c0,1.84-1.5,3.32-3.32,3.32s-3.32-1.48-3.32-3.32c0-1.83,1.5-3.31,3.32-3.31
					S2594.34,1521.35,2594.34,1523.18z M2588.91,1523.18c0,1.18,0.94,2.12,2.11,2.12s2.11-0.94,2.11-2.12c0-1.15-0.95-2.1-2.11-2.1
					C2589.84,1521.08,2588.91,1522.03,2588.91,1523.18z"/>
			</g>
			<g>
				<path class="st1" d="M2597.06,1540.38c0,1.83-1.5,3.3-3.32,3.3c-1.83,0-3.32-1.47-3.32-3.3c0-1.84,1.5-3.32,3.32-3.32
					C2595.57,1537.06,2597.06,1538.54,2597.06,1540.38z M2591.62,1540.38c0,1.15,0.94,2.1,2.11,2.1c1.18,0,2.11-0.95,2.11-2.1
					c0-1.18-0.94-2.12-2.11-2.12C2592.55,1538.26,2591.62,1539.2,2591.62,1540.38z"/>
			</g>
			<g>
				<path class="st1" d="M2597.06,1508.89c0,1.84-1.5,3.31-3.32,3.31c-1.83,0-3.32-1.47-3.32-3.31c0-1.83,1.5-3.31,3.32-3.31
					C2595.57,1505.58,2597.06,1507.06,2597.06,1508.89z M2591.62,1508.89c0,1.19,0.93,2.1,2.11,2.1c1.18,0,2.11-0.94,2.11-2.1
					c0-1.15-0.94-2.1-2.11-2.1C2592.55,1506.79,2591.62,1507.71,2591.62,1508.89z"/>
			</g>
			<g>
				<path class="st1" d="M2607.86,1509.34c0,1.83-1.48,3.31-3.32,3.31c-1.83,0-3.32-1.48-3.32-3.31c0-1.83,1.5-3.31,3.32-3.31
					C2606.38,1506.03,2607.86,1507.51,2607.86,1509.34z M2602.43,1509.34c0,1.16,0.95,2.1,2.11,2.1c1.19,0,2.12-0.91,2.12-2.1
					c0-1.19-0.94-2.1-2.12-2.1C2603.38,1507.24,2602.43,1508.18,2602.43,1509.34z"/>
			</g>
			<g>
				<path class="st1" d="M2607.86,1459.62c0,1.83-1.48,3.32-3.32,3.32c-1.83,0-3.32-1.5-3.32-3.32c0-1.84,1.5-3.31,3.32-3.31
					C2606.38,1456.31,2607.86,1457.78,2607.86,1459.62z M2602.43,1459.62c0,1.16,0.95,2.11,2.11,2.11c1.19,0,2.12-0.94,2.12-2.11
					c0-1.16-0.95-2.11-2.12-2.11C2603.38,1457.51,2602.43,1458.46,2602.43,1459.62z"/>
			</g>
			<g>
				<path class="st1" d="M2594.34,1472.93c0,1.84-1.5,3.32-3.32,3.32s-3.32-1.48-3.32-3.32c0-1.83,1.5-3.32,3.32-3.32
					S2594.34,1471.1,2594.34,1472.93z M2588.91,1472.93c0,1.18,0.94,2.11,2.11,2.11c1.16,0,2.11-0.94,2.11-2.11
					c0-1.16-0.95-2.11-2.11-2.11C2589.84,1470.82,2588.91,1471.77,2588.91,1472.93z"/>
			</g>
			<g>
				<path class="st1" d="M2621.4,1472.93c0,1.84-1.5,3.32-3.32,3.32c-1.84,0-3.32-1.48-3.32-3.32c0-1.83,1.48-3.32,3.32-3.32
					C2619.9,1469.6,2621.4,1471.1,2621.4,1472.93z M2615.96,1472.93c0,1.18,0.94,2.11,2.11,2.11c1.16,0,2.11-0.94,2.11-2.11
					c0-1.16-0.95-2.11-2.11-2.11C2616.9,1470.82,2615.96,1471.77,2615.96,1472.93z"/>
			</g>
			<g>
				<path class="st1" d="M2618.68,1384.77c0,1.83-1.5,3.32-3.32,3.32c-1.83,0-3.3-1.49-3.3-3.32c0-1.83,1.47-3.32,3.3-3.32
					C2617.18,1381.45,2618.68,1382.94,2618.68,1384.77z M2613.25,1384.77c0,1.17,0.95,2.11,2.1,2.11c1.16,0,2.11-0.94,2.11-2.11
					c0-1.18-0.95-2.12-2.11-2.12C2614.2,1382.65,2613.25,1383.6,2613.25,1384.77z"/>
			</g>
			<g>
				<path class="st1" d="M2618.68,1481.94c0,1.84-1.5,3.32-3.32,3.32c-1.84,0-3.32-1.48-3.32-3.32c0-1.83,1.48-3.31,3.32-3.31
					C2617.18,1478.63,2618.68,1480.11,2618.68,1481.94z M2613.23,1481.94c0,1.17,0.95,2.11,2.12,2.11c1.17,0,2.11-0.93,2.11-2.11
					c0-1.15-0.95-2.1-2.11-2.1C2614.18,1479.84,2613.23,1480.79,2613.23,1481.94z"/>
			</g>
			<g>
				<path class="st1" d="M2629.48,1408.16c0,1.83-1.5,3.32-3.32,3.32c-1.82,0-3.3-1.49-3.3-3.32c0-1.83,1.48-3.32,3.3-3.32
					C2627.99,1404.83,2629.48,1406.32,2629.48,1408.16z M2624.07,1408.16c0,1.17,0.94,2.11,2.09,2.11c1.18,0,2.11-0.94,2.11-2.11
					s-0.94-2.12-2.11-2.12C2625.01,1406.04,2624.07,1406.99,2624.07,1408.16z"/>
			</g>
			<g>
				<path class="st1" d="M2629.48,1390.26c0,1.83-1.5,3.32-3.32,3.32c-1.82,0-3.3-1.49-3.3-3.32c0-1.83,1.48-3.32,3.3-3.32
					C2627.99,1386.93,2629.48,1388.42,2629.48,1390.26z M2624.07,1390.26c0,1.17,0.94,2.11,2.09,2.11c1.18,0,2.11-0.94,2.11-2.11
					s-0.94-2.12-2.11-2.12C2625.01,1388.14,2624.07,1389.09,2624.07,1390.26z"/>
			</g>
			<g>
				<path class="st1" d="M2607.86,1315.45c0,1.83-1.48,3.32-3.32,3.32c-1.83,0-3.32-1.49-3.32-3.32s1.5-3.32,3.32-3.32
					C2606.38,1312.13,2607.86,1313.62,2607.86,1315.45z M2602.43,1315.45c0,1.17,0.95,2.12,2.11,2.12c1.18,0,2.12-0.95,2.12-2.12
					c0-1.17-0.95-2.11-2.12-2.11C2603.38,1313.34,2602.43,1314.28,2602.43,1315.45z"/>
			</g>
			<g>
				<path class="st1" d="M2597.06,1405.44c0,1.83-1.5,3.32-3.32,3.32c-1.83,0-3.32-1.49-3.32-3.32c0-1.83,1.5-3.32,3.32-3.32
					C2595.57,1402.12,2597.06,1403.61,2597.06,1405.44z M2591.62,1405.44c0,1.17,0.94,2.11,2.11,2.11c1.18,0,2.11-0.94,2.11-2.11
					c0-1.18-0.94-2.12-2.11-2.12C2592.56,1403.32,2591.62,1404.26,2591.62,1405.44z"/>
			</g>
			<g>
				<path class="st1" d="M2618.68,1337.92c0,1.83-1.5,3.32-3.32,3.32c-1.84,0-3.32-1.49-3.32-3.32c0-1.83,1.48-3.32,3.32-3.32
					C2617.18,1334.6,2618.68,1336.09,2618.68,1337.92z M2613.23,1337.92c0,1.17,0.95,2.12,2.12,2.12c1.16,0,2.11-0.95,2.11-2.12
					s-0.95-2.12-2.11-2.12C2614.18,1335.8,2613.23,1336.75,2613.23,1337.92z"/>
			</g>
			<g>
				<path class="st1" d="M2618.68,1295.9c0,1.83-1.5,3.32-3.32,3.32c-1.84,0-3.32-1.49-3.32-3.32s1.48-3.32,3.32-3.32
					C2617.18,1292.57,2618.68,1294.06,2618.68,1295.9z M2613.23,1295.9c0,1.17,0.95,2.12,2.12,2.12c1.16,0,2.11-0.95,2.11-2.12
					s-0.95-2.11-2.11-2.11C2614.18,1293.78,2613.23,1294.73,2613.23,1295.9z"/>
			</g>
			<g>
				<polygon class="st1" points="2605.15,1522.59 2605.15,1568.28 2603.95,1568.28 2603.95,1523.79 2593.74,1523.79 
					2593.74,1522.59 				"/>
			</g>
			<g>
				<rect x="2603.95" y="1462.34" class="st1" width="1.2" height="44.65"/>
			</g>
			<g>
				<polygon class="st1" points="2626.76,1410.88 2626.76,1432.53 2615.96,1432.53 2615.96,1479.48 2614.75,1479.48 
					2614.75,1431.32 2625.55,1431.32 2625.55,1410.88 				"/>
			</g>
			<g>
				<polygon class="st1" points="2626.76,1352.01 2626.76,1387.54 2625.55,1387.54 2625.55,1353.21 2615.96,1353.21 
					2615.96,1366.95 2603.95,1366.95 2603.95,1318.17 2605.15,1318.17 2605.15,1365.74 2614.75,1365.74 2614.75,1352.01 				"/>
			</g>
			<g>
				<polygon class="st1" points="2626.76,1310.63 2626.76,1322.43 2615.96,1322.43 2615.96,1335.2 2614.75,1335.2 2614.75,1321.22 
					2625.55,1321.22 2625.55,1311.84 2614.75,1311.84 2614.75,1298.61 2615.96,1298.61 2615.96,1310.63 				"/>
			</g>
			<g>
				<rect x="2593.13" y="1543.09" class="st1" width="1.21" height="25.19"/>
			</g>
			<g>
				<polygon class="st1" points="2615.96,1387.54 2615.96,1410.72 2605.15,1410.72 2605.15,1435.7 2594.34,1435.7 2594.34,1457.89 
					2583.53,1457.89 2583.53,1479.14 2594.34,1479.14 2594.34,1506.23 2593.13,1506.23 2593.13,1480.35 2582.33,1480.35 
					2582.33,1456.69 2593.13,1456.69 2593.13,1434.49 2603.95,1434.49 2603.95,1409.52 2614.75,1409.52 2614.75,1387.54 				"/>
			</g>
			<g>
				<rect x="2593.74" y="1472.32" class="st1" width="21.62" height="1.21"/>
			</g>
			<g>
				<polygon class="st1" points="2605.15,1265.58 2605.15,1308.92 2594.34,1308.92 2594.34,1342.57 2583.53,1342.57 
					2583.53,1374.95 2594.34,1374.95 2594.34,1402.63 2593.13,1402.63 2593.13,1376.16 2582.33,1376.16 2582.33,1341.36 
					2593.13,1341.36 2593.13,1307.71 2603.95,1307.71 2603.95,1265.58 				"/>
			</g>
			<g>
				<rect x="2593.13" y="1350.58" class="st1" width="1.21" height="17.04"/>
			</g>
		</g>
		<g>
			<rect x="2573.03" y="1517.33" class="st1" width="1.21" height="50.95"/>
		</g>
		<g>
			<path class="st1" d="M2576.96,1514.31c0,1.84-1.5,3.32-3.32,3.32c-1.84,0-3.32-1.48-3.32-3.32c0-1.83,1.48-3.32,3.32-3.32
				C2575.47,1510.99,2576.96,1512.49,2576.96,1514.31z M2571.51,1514.31c0,1.18,0.95,2.12,2.12,2.12c1.16,0,2.11-0.95,2.11-2.12
				c0-1.16-0.95-2.11-2.11-2.11C2572.46,1512.2,2571.51,1513.15,2571.51,1514.31z"/>
		</g>
		<g>
			<path class="st1" d="M2579.66,1434.64c0,1.83-1.48,3.31-3.3,3.31c-1.84,0-3.32-1.48-3.32-3.31s1.48-3.32,3.32-3.32
				C2578.17,1431.32,2579.66,1432.81,2579.66,1434.64z M2574.24,1434.64c0,1.19,0.93,2.1,2.11,2.1c1.14,0,2.09-0.94,2.09-2.1
				c0-1.17-0.95-2.11-2.09-2.11C2575.18,1432.53,2574.24,1433.47,2574.24,1434.64z"/>
		</g>
		<g>
			<path class="st1" d="M2566.15,1488.07c0,1.84-1.48,3.31-3.32,3.31c-1.83,0-3.32-1.47-3.32-3.31c0-1.83,1.5-3.32,3.32-3.32
				C2564.66,1484.74,2566.15,1486.24,2566.15,1488.07z M2560.71,1488.07c0,1.16,0.95,2.1,2.11,2.1c1.17,0,2.12-0.94,2.12-2.1
				s-0.95-2.11-2.12-2.11C2561.65,1485.95,2560.71,1486.89,2560.71,1488.07z"/>
		</g>
		<g>
			<path class="st1" d="M2579.66,1462.34c0,1.83-1.48,3.32-3.3,3.32c-1.84,0-3.32-1.5-3.32-3.32c0-1.84,1.48-3.32,3.32-3.32
				C2578.17,1459.02,2579.66,1460.5,2579.66,1462.34z M2574.24,1462.34c0,1.16,0.94,2.11,2.11,2.11c1.14,0,2.09-0.95,2.09-2.11
				c0-1.18-0.95-2.13-2.09-2.13C2575.18,1460.21,2574.24,1461.16,2574.24,1462.34z"/>
		</g>
		<g>
			<path class="st1" d="M2509.37,1523.18c0,1.84-1.48,3.32-3.32,3.32c-1.82,0-3.29-1.48-3.29-3.32c0-1.83,1.47-3.31,3.29-3.31
				C2507.88,1519.87,2509.37,1521.35,2509.37,1523.18z M2503.95,1523.18c0,1.18,0.95,2.12,2.09,2.12c1.17,0,2.12-0.95,2.12-2.12
				c0-1.17-0.94-2.1-2.12-2.1C2504.9,1521.08,2503.95,1522.03,2503.95,1523.18z"/>
		</g>
		<g>
			<path class="st1" d="M2512.09,1540.37c0,1.83-1.48,3.31-3.32,3.31c-1.83,0-3.31-1.48-3.31-3.31c0-1.84,1.48-3.31,3.31-3.31
				C2510.6,1537.06,2512.09,1538.53,2512.09,1540.37z M2506.65,1540.37c0,1.16,0.95,2.11,2.11,2.11c1.18,0,2.12-0.95,2.12-2.11
				c0-1.19-0.94-2.11-2.12-2.11C2507.6,1538.26,2506.65,1539.21,2506.65,1540.37z"/>
		</g>
		<g>
			<path class="st1" d="M2512.09,1508.89c0,1.84-1.48,3.31-3.32,3.31c-1.83,0-3.31-1.47-3.31-3.31c0-1.83,1.48-3.32,3.31-3.32
				C2510.6,1505.56,2512.09,1507.06,2512.09,1508.89z M2506.65,1508.89c0,1.16,0.95,2.1,2.11,2.1c1.19,0,2.12-0.91,2.12-2.1
				c0-1.16-0.95-2.11-2.12-2.11C2507.6,1506.77,2506.65,1507.72,2506.65,1508.89z"/>
		</g>
		<g>
			<path class="st1" d="M2522.9,1509.34c0,1.83-1.5,3.31-3.32,3.31c-1.83,0-3.3-1.48-3.3-3.31c0-1.83,1.47-3.32,3.3-3.32
				C2521.4,1506.01,2522.9,1507.51,2522.9,1509.34z M2517.49,1509.34c0,1.16,0.94,2.1,2.09,2.1c1.17,0,2.11-0.91,2.11-2.1
				c0-1.18-0.95-2.11-2.11-2.11C2518.42,1507.23,2517.49,1508.16,2517.49,1509.34z"/>
		</g>
		<g>
			<path class="st1" d="M2522.9,1459.62c0,1.83-1.5,3.32-3.32,3.32c-1.83,0-3.3-1.5-3.3-3.32c0-1.84,1.47-3.31,3.3-3.31
				C2521.4,1456.31,2522.9,1457.78,2522.9,1459.62z M2517.49,1459.62c0,1.16,0.94,2.11,2.09,2.11c1.17,0,2.11-0.94,2.11-2.11
				c0-1.19-0.94-2.11-2.11-2.11C2518.42,1457.51,2517.49,1458.46,2517.49,1459.62z"/>
		</g>
		<g>
			<path class="st1" d="M2509.37,1472.93c0,1.84-1.48,3.31-3.32,3.31c-1.82,0-3.29-1.47-3.29-3.31c0-1.83,1.47-3.32,3.29-3.32
				C2507.88,1469.6,2509.37,1471.1,2509.37,1472.93z M2503.95,1472.93c0,1.16,0.95,2.1,2.09,2.1c1.19,0,2.12-0.91,2.12-2.1
				c0-1.16-0.95-2.11-2.12-2.11C2504.9,1470.82,2503.95,1471.77,2503.95,1472.93z"/>
		</g>
		<g>
			<path class="st1" d="M2536.42,1472.93c0,1.84-1.48,3.31-3.32,3.31c-1.83,0-3.32-1.47-3.32-3.31c0-1.83,1.5-3.32,3.32-3.32
				C2534.94,1469.6,2536.42,1471.1,2536.42,1472.93z M2530.98,1472.93c0,1.16,0.95,2.1,2.11,2.1c1.19,0,2.12-0.91,2.12-2.1
				c0-1.16-0.95-2.11-2.12-2.11C2531.94,1470.82,2530.98,1471.77,2530.98,1472.93z"/>
		</g>
		<g>
			<path class="st1" d="M2533.7,1384.77c0,1.83-1.47,3.32-3.3,3.32c-1.83,0-3.32-1.49-3.32-3.32c0-1.83,1.5-3.32,3.32-3.32
				C2532.23,1381.45,2533.7,1382.94,2533.7,1384.77z M2528.29,1384.77c0,1.17,0.95,2.11,2.11,2.11c1.15,0,2.1-0.94,2.1-2.11
				c0-1.18-0.95-2.12-2.1-2.12C2529.24,1382.65,2528.29,1383.6,2528.29,1384.77z"/>
		</g>
		<g>
			<path class="st1" d="M2533.7,1481.94c0,1.84-1.48,3.32-3.32,3.32c-1.82,0-3.3-1.48-3.3-3.32c0-1.83,1.48-3.31,3.3-3.31
				C2532.22,1478.63,2533.7,1480.11,2533.7,1481.94z M2528.29,1481.94c0,1.17,0.95,2.11,2.09,2.11c1.18,0,2.12-0.94,2.12-2.11
				c0-1.18-0.94-2.1-2.12-2.1C2529.24,1479.84,2528.29,1480.79,2528.29,1481.94z"/>
		</g>
		<g>
			<path class="st1" d="M2544.51,1408.16c0,1.83-1.47,3.32-3.29,3.32c-1.84,0-3.32-1.49-3.32-3.32c0-1.83,1.48-3.32,3.32-3.32
				C2543.03,1404.83,2544.51,1406.32,2544.51,1408.16z M2539.09,1408.16c0,1.17,0.95,2.11,2.12,2.11c1.14,0,2.09-0.94,2.09-2.11
				s-0.95-2.12-2.09-2.12C2540.04,1406.04,2539.09,1406.99,2539.09,1408.16z"/>
		</g>
		<g>
			<path class="st1" d="M2544.51,1390.26c0,1.83-1.47,3.32-3.29,3.32c-1.84,0-3.32-1.49-3.32-3.32c0-1.83,1.48-3.32,3.32-3.32
				C2543.03,1386.93,2544.51,1388.42,2544.51,1390.26z M2539.09,1390.26c0,1.17,0.95,2.11,2.12,2.11c1.14,0,2.09-0.94,2.09-2.11
				s-0.95-2.12-2.09-2.12C2540.04,1388.14,2539.09,1389.09,2539.09,1390.26z"/>
		</g>
		<g>
			<path class="st1" d="M2522.9,1315.45c0,1.83-1.5,3.32-3.32,3.32c-1.83,0-3.3-1.49-3.3-3.32s1.47-3.32,3.3-3.32
				C2521.4,1312.13,2522.9,1313.62,2522.9,1315.45z M2517.49,1315.45c0,1.17,0.94,2.12,2.09,2.12c1.16,0,2.11-0.95,2.11-2.12
				c0-1.17-0.95-2.11-2.11-2.11C2518.42,1313.34,2517.49,1314.28,2517.49,1315.45z"/>
		</g>
		<g>
			<path class="st1" d="M2512.09,1405.44c0,1.83-1.48,3.32-3.32,3.32c-1.83,0-3.31-1.49-3.31-3.32c0-1.83,1.48-3.32,3.31-3.32
				C2510.6,1402.12,2512.09,1403.61,2512.09,1405.44z M2506.65,1405.44c0,1.17,0.95,2.11,2.11,2.11c1.18,0,2.12-0.94,2.12-2.11
				c0-1.18-0.95-2.12-2.12-2.12C2507.6,1403.32,2506.65,1404.26,2506.65,1405.44z"/>
		</g>
		<g>
			<path class="st1" d="M2533.7,1337.92c0,1.83-1.48,3.32-3.32,3.32c-1.82,0-3.3-1.49-3.3-3.32c0-1.83,1.48-3.32,3.3-3.32
				C2532.22,1334.6,2533.7,1336.09,2533.7,1337.92z M2528.29,1337.92c0,1.17,0.95,2.12,2.09,2.12c1.18,0,2.12-0.95,2.12-2.12
				s-0.95-2.12-2.12-2.12C2529.24,1335.8,2528.29,1336.75,2528.29,1337.92z"/>
		</g>
		<g>
			<path class="st1" d="M2533.7,1295.9c0,1.83-1.48,3.32-3.32,3.32c-1.82,0-3.3-1.49-3.3-3.32s1.48-3.32,3.3-3.32
				C2532.22,1292.57,2533.7,1294.06,2533.7,1295.9z M2528.29,1295.9c0,1.17,0.95,2.12,2.09,2.12c1.18,0,2.12-0.95,2.12-2.12
				s-0.95-2.11-2.12-2.11C2529.24,1293.78,2528.29,1294.73,2528.29,1295.9z"/>
		</g>
		<g>
			<path class="st1" d="M2566.15,1416.93c0,1.83-1.48,3.32-3.32,3.32c-1.83,0-3.32-1.49-3.32-3.32s1.5-3.32,3.32-3.32
				C2564.66,1413.61,2566.15,1415.1,2566.15,1416.93z M2560.71,1416.93c0,1.17,0.95,2.12,2.11,2.12c1.17,0,2.12-0.95,2.12-2.12
				s-0.95-2.12-2.12-2.12C2561.66,1414.81,2560.71,1415.76,2560.71,1416.93z"/>
		</g>
		<g>
			<path class="st1" d="M2552.63,1375.31c0,1.83-1.5,3.32-3.32,3.32s-3.32-1.49-3.32-3.32c0-1.83,1.5-3.32,3.32-3.32
				S2552.63,1373.48,2552.63,1375.31z M2547.19,1375.31c0,1.17,0.94,2.12,2.11,2.12c1.16,0,2.11-0.95,2.11-2.12
				c0-1.17-0.95-2.12-2.11-2.12C2548.13,1373.19,2547.19,1374.14,2547.19,1375.31z"/>
		</g>
		<g>
			<path class="st1" d="M2566.13,1365.92c0,1.83-1.47,3.32-3.3,3.32c-1.83,0-3.32-1.49-3.32-3.32c0-1.83,1.5-3.32,3.32-3.32
				C2564.65,1362.6,2566.13,1364.08,2566.13,1365.92z M2560.71,1365.92c0,1.17,0.95,2.12,2.11,2.12c1.15,0,2.1-0.95,2.1-2.12
				s-0.95-2.11-2.1-2.11C2561.66,1363.81,2560.71,1364.75,2560.71,1365.92z"/>
		</g>
		<g>
			<path class="st1" d="M2555.32,1324.11c0,1.83-1.48,3.32-3.3,3.32c-1.83,0-3.32-1.49-3.32-3.32c0-1.83,1.5-3.32,3.32-3.32
				C2553.84,1320.79,2555.32,1322.28,2555.32,1324.11z M2549.91,1324.11c0,1.18,0.94,2.12,2.11,2.12c1.15,0,2.09-0.94,2.09-2.12
				c0-1.17-0.94-2.11-2.09-2.11C2550.85,1321.99,2549.91,1322.94,2549.91,1324.11z"/>
		</g>
		<g>
			<path class="st1" d="M2566.13,1306.89c0,1.83-1.47,3.32-3.3,3.32c-1.83,0-3.32-1.49-3.32-3.32c0-1.83,1.5-3.32,3.32-3.32
				C2564.65,1303.57,2566.13,1305.06,2566.13,1306.89z M2560.71,1306.89c0,1.17,0.95,2.11,2.11,2.11c1.15,0,2.1-0.94,2.1-2.11
				s-0.95-2.12-2.1-2.12C2561.66,1304.78,2560.71,1305.72,2560.71,1306.89z"/>
		</g>
		<g>
			<path class="st1" d="M2544.51,1268.3c0,1.83-1.47,3.32-3.29,3.32c-1.84,0-3.32-1.49-3.32-3.32s1.48-3.32,3.32-3.32
				C2543.03,1264.98,2544.51,1266.47,2544.51,1268.3z M2539.09,1268.3c0,1.17,0.95,2.11,2.12,2.11c1.14,0,2.09-0.94,2.09-2.11
				s-0.95-2.12-2.09-2.12C2540.03,1266.18,2539.09,1267.12,2539.09,1268.3z"/>
		</g>
		<g>
			<path class="st1" d="M2576.96,1369.88c0,1.83-1.5,3.32-3.32,3.32c-1.84,0-3.32-1.49-3.32-3.32c0-1.83,1.48-3.32,3.32-3.32
				C2575.47,1366.56,2576.96,1368.05,2576.96,1369.88z M2571.51,1369.88c0,1.17,0.95,2.11,2.12,2.11c1.16,0,2.11-0.94,2.11-2.11
				c0-1.18-0.95-2.12-2.11-2.12C2572.46,1367.77,2571.51,1368.71,2571.51,1369.88z"/>
		</g>
		<g>
			<path class="st1" d="M2576.96,1280.27c0,1.83-1.5,3.32-3.32,3.32c-1.84,0-3.32-1.49-3.32-3.32s1.48-3.32,3.32-3.32
				C2575.47,1276.94,2576.96,1278.43,2576.96,1280.27z M2571.51,1280.27c0,1.17,0.95,2.11,2.12,2.11c1.16,0,2.11-0.94,2.11-2.11
				s-0.95-2.12-2.11-2.12C2572.46,1278.15,2571.51,1279.1,2571.51,1280.27z"/>
		</g>
		<g>
			<path class="st1" d="M2566.13,1381.16c0,1.83-1.47,3.32-3.3,3.32c-1.83,0-3.32-1.49-3.32-3.32c0-1.83,1.5-3.32,3.32-3.32
				C2564.65,1377.84,2566.13,1379.33,2566.13,1381.16z M2560.71,1381.16c0,1.17,0.95,2.12,2.11,2.12c1.15,0,2.1-0.95,2.1-2.12
				s-0.95-2.12-2.1-2.12C2561.66,1379.04,2560.71,1379.99,2560.71,1381.16z"/>
		</g>
		<g>
			<path class="st1" d="M2555.32,1418.14c0,1.83-1.48,3.32-3.3,3.32c-1.83,0-3.32-1.49-3.32-3.32s1.5-3.32,3.32-3.32
				C2553.84,1414.81,2555.32,1416.3,2555.32,1418.14z M2549.91,1418.14c0,1.17,0.94,2.12,2.11,2.12c1.15,0,2.09-0.95,2.09-2.12
				s-0.94-2.11-2.09-2.11C2550.85,1416.02,2549.91,1416.97,2549.91,1418.14z"/>
		</g>
		<g>
			<path class="st1" d="M2555.32,1528.11c0,1.83-1.48,3.32-3.3,3.32c-1.83,0-3.32-1.5-3.32-3.32c0-1.84,1.5-3.31,3.32-3.31
				C2553.84,1524.79,2555.32,1526.27,2555.32,1528.11z M2549.91,1528.11c0,1.16,0.94,2.11,2.11,2.11c1.15,0,2.09-0.95,2.09-2.11
				c0-1.16-0.94-2.11-2.09-2.11C2550.83,1525.99,2549.91,1526.92,2549.91,1528.11z"/>
		</g>
		<g>
			<rect x="2562.23" y="1490.33" class="st1" width="1.2" height="77.95"/>
		</g>
		<g>
			<rect x="2551.42" y="1530.83" class="st1" width="1.21" height="37.46"/>
		</g>
		<g>
			<polygon class="st1" points="2573.64,1461.73 2573.64,1462.95 2552.63,1462.95 2552.63,1506.35 2541.81,1506.35 2541.81,1568.28 
				2540.61,1568.28 2540.61,1505.14 2551.42,1505.14 2551.42,1461.73 			"/>
		</g>
		<g>
			<polygon class="st1" points="2573.64,1434.04 2573.64,1435.25 2562.23,1435.25 2562.23,1424.35 2552.63,1424.35 2552.63,1444.02 
				2541.81,1444.02 2541.81,1488.29 2530.98,1488.29 2530.98,1568.28 2529.77,1568.28 2529.77,1487.08 2540.61,1487.08 
				2540.61,1442.81 2551.42,1442.81 2551.42,1423.14 2563.43,1423.14 2563.43,1434.04 			"/>
		</g>
		<g>
			<polygon class="st1" points="2520.18,1522.59 2520.18,1568.28 2518.97,1568.28 2518.97,1523.79 2508.76,1523.79 2508.76,1522.59 
							"/>
		</g>
		<g>
			<rect x="2518.97" y="1462.34" class="st1" width="1.21" height="44.65"/>
		</g>
		<g>
			<polygon class="st1" points="2541.81,1410.88 2541.81,1432.53 2530.98,1432.53 2530.98,1479.48 2529.77,1479.48 2529.77,1431.32 
				2540.61,1431.32 2540.61,1410.88 			"/>
		</g>
		<g>
			<polygon class="st1" points="2574.24,1374.7 2574.24,1395.21 2563.43,1395.21 2563.43,1414.28 2562.23,1414.28 2562.23,1394 
				2573.03,1394 2573.03,1375.92 2552.02,1375.92 2552.02,1374.7 			"/>
		</g>
		<g>
			<polygon class="st1" points="2563.43,1383.88 2563.43,1390.03 2552.63,1390.03 2552.63,1415.42 2551.42,1415.42 2551.42,1388.83 
				2562.23,1388.83 2562.23,1383.88 			"/>
		</g>
		<g>
			<polygon class="st1" points="2541.81,1352.01 2541.81,1387.54 2540.61,1387.54 2540.61,1353.21 2530.98,1353.21 2530.98,1366.95 
				2518.97,1366.95 2518.97,1318.17 2520.18,1318.17 2520.18,1365.74 2529.77,1365.74 2529.77,1352.01 			"/>
		</g>
		<g>
			<polygon class="st1" points="2541.81,1310.63 2541.81,1322.43 2530.98,1322.43 2530.98,1335.2 2529.77,1335.2 2529.77,1321.22 
				2540.61,1321.22 2540.61,1311.84 2529.8,1311.84 2529.8,1298.61 2531.01,1298.61 2531.01,1310.63 			"/>
		</g>
		<g>
			<polygon class="st1" points="2574.24,1282.98 2574.24,1316.06 2563.43,1316.06 2563.43,1337.31 2574.24,1337.31 2574.24,1366.99 
				2573.03,1366.99 2573.03,1338.53 2562.23,1338.53 2562.23,1314.85 2573.03,1314.85 2573.03,1282.98 			"/>
		</g>
		<g>
			<polygon class="st1" points="2563.43,1344.19 2563.43,1363.2 2562.23,1363.2 2562.23,1345.39 2551.42,1345.39 2551.42,1326.63 
				2552.63,1326.63 2552.63,1344.19 			"/>
		</g>
		<g>
			<polygon class="st1" points="2563.43,1286.17 2563.43,1304.18 2562.23,1304.18 2562.23,1287.37 2552.63,1287.37 2552.63,1296.07 
				2540.61,1296.07 2540.61,1271.72 2541.81,1271.72 2541.81,1294.87 2551.42,1294.87 2551.42,1286.17 			"/>
		</g>
		<g>
			<rect x="2508.17" y="1543.09" class="st1" width="1.2" height="25.19"/>
		</g>
		<g>
			<polygon class="st1" points="2531.01,1387.54 2531.01,1410.72 2520.18,1410.72 2520.18,1435.7 2509.37,1435.7 2509.37,1457.89 
				2498.56,1457.89 2498.56,1479.14 2509.37,1479.14 2509.37,1506.23 2508.17,1506.23 2508.17,1480.35 2497.35,1480.35 
				2497.35,1456.69 2508.17,1456.69 2508.17,1434.49 2518.97,1434.49 2518.97,1409.52 2529.8,1409.52 2529.8,1387.54 			"/>
		</g>
		<g>
			<g>
				<g>
					<path class="st1" d="M2579.66,1451.55c0,1.84-1.48,3.31-3.3,3.31c-1.84,0-3.32-1.47-3.32-3.31c0-1.83,1.48-3.32,3.32-3.32
						C2578.17,1448.22,2579.66,1449.72,2579.66,1451.55z M2574.24,1451.55c0,1.19,0.93,2.11,2.11,2.11c1.14,0,2.09-0.95,2.09-2.11
						c0-1.16-0.95-2.11-2.09-2.11C2575.18,1449.43,2574.24,1450.39,2574.24,1451.55z"/>
				</g>
				<g>
					<path class="st1" d="M2552.63,1451.55c0,1.84-1.5,3.31-3.32,3.31s-3.32-1.47-3.32-3.31c0-1.83,1.5-3.32,3.32-3.32
						S2552.63,1449.72,2552.63,1451.55z M2547.19,1451.55c0,1.19,0.93,2.11,2.11,2.11c1.16,0,2.11-0.95,2.11-2.11
						c0-1.16-0.95-2.11-2.11-2.11C2548.13,1449.43,2547.19,1450.39,2547.19,1451.55z"/>
				</g>
			</g>
			<g>
				<rect x="2552.02" y="1450.95" class="st1" width="21.62" height="1.2"/>
			</g>
		</g>
		<g>
			<g>
				<g>
					<path class="st1" d="M2429.34,1532.54c0,1.84-1.48,3.31-3.29,3.31c-1.83,0-3.32-1.47-3.32-3.31c0-1.83,1.49-3.32,3.32-3.32
						C2427.86,1529.21,2429.34,1530.71,2429.34,1532.54z M2423.93,1532.54c0,1.19,0.93,2.1,2.12,2.1c1.15,0,2.09-0.94,2.09-2.1
						c0-1.16-0.94-2.11-2.09-2.11C2424.87,1530.42,2423.93,1531.37,2423.93,1532.54z"/>
				</g>
				<g>
					<path class="st1" d="M2402.31,1532.54c0,1.84-1.49,3.31-3.32,3.31c-1.83,0-3.32-1.47-3.32-3.31c0-1.83,1.49-3.32,3.32-3.32
						C2400.82,1529.21,2402.31,1530.71,2402.31,1532.54z M2396.87,1532.54c0,1.19,0.93,2.1,2.12,2.1c1.17,0,2.11-0.94,2.11-2.1
						c0-1.16-0.94-2.11-2.11-2.11C2397.82,1530.42,2396.87,1531.37,2396.87,1532.54z"/>
				</g>
			</g>
			<g>
				<rect x="2401.71" y="1531.93" class="st1" width="21.61" height="1.21"/>
			</g>
		</g>
		<g>
			<g>
				<g>
					<path class="st1" d="M2412.52,1534.1c1.83,0,3.31,1.47,3.31,3.3c0,1.83-1.48,3.31-3.31,3.31c-1.83,0-3.32-1.48-3.32-3.31
						C2409.2,1535.58,2410.69,1534.1,2412.52,1534.1z M2412.52,1539.52c1.18,0,2.1-0.94,2.1-2.11c0-1.15-0.94-2.1-2.1-2.1
						c-1.18,0-2.12,0.95-2.12,2.1C2410.4,1538.57,2411.34,1539.52,2412.52,1539.52z"/>
				</g>
				<g>
					<path class="st1" d="M2412.52,1561.13c1.83,0,3.31,1.48,3.31,3.31c0,1.84-1.48,3.32-3.31,3.32c-1.83,0-3.32-1.48-3.32-3.32
						C2409.2,1562.62,2410.69,1561.13,2412.52,1561.13z M2412.52,1566.57c1.18,0,2.1-0.94,2.1-2.12c0-1.16-0.94-2.11-2.1-2.11
						c-1.18,0-2.12,0.95-2.12,2.11C2410.4,1565.62,2411.34,1566.57,2412.52,1566.57z"/>
				</g>
			</g>
			<g>
				<rect x="2411.91" y="1540.12" class="st1" width="1.21" height="21.61"/>
			</g>
		</g>
		<g>
			<g>
				<g>
					<path class="st1" d="M2412.52,1382.38c1.83,0,3.31,1.48,3.31,3.3c0,1.83-1.48,3.32-3.31,3.32c-1.83,0-3.32-1.49-3.32-3.32
						C2409.2,1383.86,2410.69,1382.38,2412.52,1382.38z M2412.52,1387.8c1.18,0,2.1-0.94,2.1-2.12c0-1.15-0.94-2.1-2.1-2.1
						c-1.18,0-2.12,0.95-2.12,2.1C2410.4,1386.85,2411.34,1387.8,2412.52,1387.8z"/>
				</g>
				<g>
					<path class="st1" d="M2412.52,1409.41c1.83,0,3.31,1.49,3.31,3.32c0,1.83-1.48,3.32-3.31,3.32c-1.83,0-3.32-1.49-3.32-3.32
						C2409.2,1410.9,2410.69,1409.41,2412.52,1409.41z M2412.52,1414.85c1.18,0,2.1-0.93,2.1-2.11c0-1.17-0.94-2.12-2.1-2.12
						c-1.18,0-2.12,0.95-2.12,2.12S2411.34,1414.85,2412.52,1414.85z"/>
				</g>
			</g>
			<g>
				<rect x="2411.91" y="1388.4" class="st1" width="1.21" height="21.62"/>
			</g>
		</g>
		<g>
			<g>
				<g>
					<path class="st1" d="M2582.34,1391.32c1.83,0,3.31,1.48,3.31,3.3c0,1.83-1.48,3.32-3.31,3.32c-1.84,0-3.32-1.49-3.32-3.32
						C2579.02,1392.8,2580.5,1391.32,2582.34,1391.32z M2582.34,1396.74c1.18,0,2.1-0.94,2.1-2.12c0-1.15-0.95-2.1-2.1-2.1
						c-1.17,0-2.11,0.95-2.11,2.1C2580.23,1395.79,2581.17,1396.74,2582.34,1396.74z"/>
				</g>
				<g>
					<path class="st1" d="M2582.34,1418.35c1.83,0,3.31,1.49,3.31,3.32c0,1.83-1.48,3.32-3.31,3.32c-1.84,0-3.32-1.48-3.32-3.32
						C2579.02,1419.84,2580.5,1418.35,2582.34,1418.35z M2582.34,1423.79c1.18,0,2.1-0.94,2.1-2.12c0-1.17-0.95-2.12-2.1-2.12
						c-1.17,0-2.11,0.95-2.11,2.12S2581.17,1423.79,2582.34,1423.79z"/>
				</g>
			</g>
			<g>
				<rect x="2581.74" y="1397.34" class="st1" width="1.21" height="21.62"/>
			</g>
		</g>
		<g>
			<g>
				<g>
					<path class="st1" d="M2615.97,1524.33c1.83,0,3.3,1.47,3.3,3.3c0,1.83-1.47,3.32-3.3,3.32c-1.84,0-3.32-1.5-3.32-3.32
						C2612.65,1525.81,2614.13,1524.33,2615.97,1524.33z M2615.97,1529.75c1.18,0,2.1-0.94,2.1-2.11c0-1.15-0.95-2.09-2.1-2.09
						c-1.17,0-2.12,0.94-2.12,2.09C2613.85,1528.8,2614.8,1529.75,2615.97,1529.75z"/>
				</g>
				<g>
					<path class="st1" d="M2615.97,1551.36c1.83,0,3.3,1.48,3.3,3.32c0,1.83-1.47,3.32-3.3,3.32c-1.84,0-3.32-1.5-3.32-3.32
						C2612.65,1552.85,2614.13,1551.36,2615.97,1551.36z M2615.97,1556.8c1.18,0,2.1-0.94,2.1-2.11c0-1.17-0.95-2.12-2.1-2.12
						c-1.17,0-2.12,0.95-2.12,2.12C2613.85,1555.85,2614.8,1556.8,2615.97,1556.8z"/>
				</g>
			</g>
			<g>
				<rect x="2615.37" y="1530.35" class="st1" width="1.2" height="21.62"/>
			</g>
		</g>
		<g>
			<g>
				<g>
					<path class="st1" d="M2500.68,1271.11c1.84,0,3.31,1.48,3.31,3.3c0,1.83-1.47,3.32-3.31,3.32c-1.83,0-3.32-1.49-3.32-3.32
						C2497.35,1272.59,2498.85,1271.11,2500.68,1271.11z M2500.68,1276.53c1.19,0,2.11-0.93,2.11-2.11c0-1.15-0.95-2.1-2.11-2.1
						s-2.11,0.94-2.11,2.1C2498.56,1275.58,2499.51,1276.53,2500.68,1276.53z"/>
				</g>
				<g>
					<path class="st1" d="M2500.68,1298.14c1.84,0,3.31,1.49,3.31,3.32c0,1.83-1.47,3.32-3.31,3.32c-1.83,0-3.32-1.49-3.32-3.32
						C2497.35,1299.63,2498.85,1298.14,2500.68,1298.14z M2500.68,1303.58c1.19,0,2.11-0.93,2.11-2.11c0-1.18-0.95-2.12-2.11-2.12
						s-2.11,0.94-2.11,2.12C2498.56,1302.64,2499.51,1303.58,2500.68,1303.58z"/>
				</g>
			</g>
			<g>
				<rect x="2500.07" y="1277.13" class="st1" width="1.21" height="21.61"/>
			</g>
		</g>
		<g>
			<g>
				<g>
					<path class="st1" d="M2587.64,1271.11c1.83,0,3.31,1.48,3.31,3.3c0,1.83-1.48,3.32-3.31,3.32c-1.83,0-3.32-1.49-3.32-3.32
						C2584.31,1272.59,2585.81,1271.11,2587.64,1271.11z M2587.64,1276.53c1.19,0,2.1-0.93,2.1-2.11c0-1.15-0.94-2.1-2.1-2.1
						c-1.18,0-2.11,0.94-2.11,2.1C2585.52,1275.58,2586.46,1276.53,2587.64,1276.53z"/>
				</g>
				<g>
					<path class="st1" d="M2587.64,1298.14c1.83,0,3.31,1.49,3.31,3.32c0,1.83-1.48,3.32-3.31,3.32c-1.83,0-3.32-1.49-3.32-3.32
						C2584.31,1299.63,2585.81,1298.14,2587.64,1298.14z M2587.64,1303.58c1.19,0,2.1-0.93,2.1-2.11c0-1.18-0.94-2.12-2.1-2.12
						c-1.18,0-2.11,0.94-2.11,2.12C2585.52,1302.64,2586.46,1303.58,2587.64,1303.58z"/>
				</g>
			</g>
			<g>
				<rect x="2587.03" y="1277.13" class="st1" width="1.21" height="21.61"/>
			</g>
		</g>
		<g>
			<g>
				<g>
					<path class="st1" d="M2624.72,1271.1c1.83,0,3.3,1.48,3.3,3.3c0,1.83-1.47,3.32-3.3,3.32c-1.84,0-3.32-1.49-3.32-3.32
						C2621.4,1272.58,2622.88,1271.1,2624.72,1271.1z M2624.72,1276.51c1.17,0,2.1-0.93,2.1-2.11c0-1.15-0.95-2.1-2.1-2.1
						c-1.18,0-2.12,0.94-2.12,2.1C2622.6,1275.57,2623.55,1276.51,2624.72,1276.51z"/>
				</g>
				<g>
					<path class="st1" d="M2624.72,1298.13c1.83,0,3.3,1.49,3.3,3.32c0,1.83-1.47,3.32-3.3,3.32c-1.84,0-3.32-1.49-3.32-3.32
						C2621.4,1299.62,2622.88,1298.13,2624.72,1298.13z M2624.72,1303.57c1.17,0,2.1-0.93,2.1-2.11c0-1.18-0.95-2.12-2.1-2.12
						c-1.18,0-2.12,0.94-2.12,2.12C2622.6,1302.63,2623.55,1303.57,2624.72,1303.57z"/>
				</g>
			</g>
			<g>
				<rect x="2624.12" y="1277.12" class="st1" width="1.2" height="21.61"/>
			</g>
		</g>
		<g>
			<g>
				<g>
					<path class="st1" d="M2624.72,1486.59c1.83,0,3.3,1.47,3.3,3.3c0,1.83-1.47,3.31-3.3,3.31c-1.84,0-3.32-1.48-3.32-3.31
						C2621.4,1488.07,2622.88,1486.59,2624.72,1486.59z M2624.72,1492.01c1.17,0,2.1-0.94,2.1-2.11c0-1.15-0.95-2.1-2.1-2.1
						c-1.18,0-2.12,0.95-2.12,2.1C2622.6,1491.06,2623.55,1492.01,2624.72,1492.01z"/>
				</g>
				<g>
					<path class="st1" d="M2624.72,1513.62c1.83,0,3.3,1.48,3.3,3.31c0,1.84-1.47,3.32-3.3,3.32c-1.84,0-3.32-1.48-3.32-3.32
						C2621.4,1515.11,2622.88,1513.62,2624.72,1513.62z M2624.72,1519.06c1.17,0,2.1-0.94,2.1-2.12c0-1.16-0.95-2.11-2.1-2.11
						c-1.18,0-2.12,0.95-2.12,2.11C2622.6,1518.11,2623.55,1519.06,2624.72,1519.06z"/>
				</g>
			</g>
			<g>
				<rect x="2624.12" y="1492.61" class="st1" width="1.2" height="21.61"/>
			</g>
		</g>
		<g>
			<g>
				<g>
					<path class="st1" d="M2497.36,1408.86c1.84,0,3.31,1.48,3.31,3.3c0,1.83-1.47,3.32-3.31,3.32c-1.83,0-3.32-1.49-3.32-3.32
						C2494.04,1410.34,2495.54,1408.86,2497.36,1408.86z M2497.36,1414.28c1.19,0,2.11-0.94,2.11-2.12c0-1.15-0.95-2.09-2.11-2.09
						s-2.11,0.94-2.11,2.09C2495.25,1413.33,2496.2,1414.28,2497.36,1414.28z"/>
				</g>
				<g>
					<path class="st1" d="M2497.36,1435.9c1.84,0,3.31,1.48,3.31,3.32c0,1.83-1.47,3.31-3.31,3.31c-1.83,0-3.32-1.48-3.32-3.31
						C2494.04,1437.39,2495.54,1435.9,2497.36,1435.9z M2497.36,1441.34c1.19,0,2.11-0.94,2.11-2.11s-0.95-2.12-2.11-2.12
						s-2.11,0.95-2.11,2.12C2495.25,1440.39,2496.2,1441.34,2497.36,1441.34z"/>
				</g>
			</g>
			<g>
				<rect x="2496.77" y="1414.88" class="st1" width="1.2" height="21.61"/>
			</g>
		</g>
		<g>
			<g>
				<g>
					<path class="st1" d="M2576.36,1471.23c1.83,0,3.31,1.47,3.31,3.3c0,1.83-1.48,3.32-3.31,3.32c-1.84,0-3.32-1.5-3.32-3.32
						C2573.03,1472.7,2574.52,1471.23,2576.36,1471.23z M2576.36,1476.64c1.18,0,2.1-0.94,2.1-2.11c0-1.15-0.95-2.1-2.1-2.1
						c-1.17,0-2.11,0.95-2.11,2.1C2574.24,1475.7,2575.18,1476.64,2576.36,1476.64z"/>
				</g>
				<g>
					<path class="st1" d="M2576.36,1498.26c1.83,0,3.31,1.48,3.31,3.32c0,1.83-1.48,3.31-3.31,3.31c-1.84,0-3.32-1.48-3.32-3.31
						C2573.03,1499.75,2574.52,1498.26,2576.36,1498.26z M2576.36,1503.7c1.18,0,2.1-0.94,2.1-2.11c0-1.18-0.95-2.12-2.1-2.12
						c-1.17,0-2.11,0.95-2.11,2.12C2574.24,1502.75,2575.18,1503.7,2576.36,1503.7z"/>
				</g>
			</g>
			<g>
				<rect x="2575.75" y="1477.25" class="st1" width="1.21" height="21.62"/>
			</g>
		</g>
		<g>
			<rect x="2508.76" y="1472.32" class="st1" width="21.64" height="1.21"/>
		</g>
		<g>
			<polygon class="st1" points="2520.18,1265.58 2520.18,1308.92 2509.37,1308.92 2509.37,1342.57 2498.56,1342.57 2498.56,1374.95 
				2509.37,1374.95 2509.37,1402.63 2508.17,1402.63 2508.17,1376.16 2497.35,1376.16 2497.35,1341.36 2508.17,1341.36 
				2508.17,1307.71 2518.97,1307.71 2518.97,1265.58 			"/>
		</g>
		<g>
			<rect x="2508.17" y="1350.58" class="st1" width="1.2" height="17.04"/>
		</g>
		<g>
			<g>
				<rect x="2488.18" y="1265.58" class="st1" width="1.21" height="50.95"/>
			</g>
			<g>
				<path class="st1" d="M2492.11,1319.54c0,1.83-1.48,3.32-3.32,3.32c-1.83,0-3.32-1.49-3.32-3.32c0-1.83,1.49-3.31,3.32-3.31
					C2490.62,1316.24,2492.11,1317.71,2492.11,1319.54z M2486.67,1319.54c0,1.18,0.95,2.12,2.11,2.12c1.18,0,2.11-0.94,2.11-2.12
					c0-1.16-0.94-2.1-2.11-2.1C2487.61,1317.44,2486.67,1318.36,2486.67,1319.54z"/>
			</g>
			<g>
				<path class="st1" d="M2494.8,1399.22c0,1.83-1.47,3.32-3.3,3.32s-3.32-1.49-3.32-3.32c0-1.83,1.5-3.31,3.32-3.31
					S2494.8,1397.38,2494.8,1399.22z M2489.39,1399.22c0,1.17,0.95,2.11,2.11,2.11c1.15,0,2.1-0.94,2.1-2.11
					c0-1.16-0.95-2.11-2.1-2.11C2490.33,1397.11,2489.39,1398.04,2489.39,1399.22z"/>
			</g>
			<g>
				<path class="st1" d="M2481.3,1345.81c0,1.83-1.49,3.31-3.32,3.31c-1.83,0-3.32-1.48-3.32-3.31s1.49-3.32,3.32-3.32
					C2479.81,1342.48,2481.3,1343.97,2481.3,1345.81z M2475.86,1345.81c0,1.18,0.92,2.1,2.12,2.1c1.16,0,2.11-0.94,2.11-2.1
					c0-1.17-0.96-2.12-2.11-2.12C2476.8,1343.69,2475.86,1344.64,2475.86,1345.81z"/>
			</g>
			<g>
				<path class="st1" d="M2494.8,1371.52c0,1.83-1.47,3.32-3.3,3.32s-3.32-1.49-3.32-3.32c0-1.83,1.5-3.31,3.32-3.31
					S2494.8,1369.69,2494.8,1371.52z M2489.39,1371.52c0,1.18,0.95,2.12,2.11,2.12c1.15,0,2.1-0.94,2.1-2.12
					c0-1.16-0.95-2.1-2.1-2.1C2490.33,1369.42,2489.39,1370.34,2489.39,1371.52z"/>
			</g>
			<g>
				<path class="st1" d="M2494.8,1382.31c0,1.83-1.47,3.32-3.3,3.32s-3.32-1.49-3.32-3.32c0-1.83,1.5-3.31,3.32-3.31
					S2494.8,1380.47,2494.8,1382.31z M2489.39,1382.31c0,1.17,0.95,2.12,2.11,2.12c1.15,0,2.1-0.95,2.1-2.12
					c0-1.16-0.95-2.1-2.1-2.1C2490.33,1380.21,2489.39,1381.13,2489.39,1382.31z"/>
			</g>
			<g>
				<path class="st1" d="M2467.77,1382.31c0,1.83-1.49,3.32-3.32,3.32s-3.32-1.49-3.32-3.32c0-1.83,1.49-3.32,3.32-3.32
					S2467.77,1380.47,2467.77,1382.31z M2462.33,1382.31c0,1.17,0.95,2.12,2.12,2.12c1.16,0,2.11-0.95,2.11-2.12
					c0-1.17-0.96-2.11-2.11-2.11C2463.28,1380.19,2462.33,1381.14,2462.33,1382.31z"/>
			</g>
			<g>
				<path class="st1" d="M2424.52,1310.68c0,1.83-1.49,3.31-3.32,3.31c-1.82,0-3.3-1.48-3.3-3.31c0-1.83,1.48-3.32,3.3-3.32
					C2423.03,1307.36,2424.52,1308.85,2424.52,1310.68z M2419.1,1310.68c0,1.16,0.94,2.11,2.1,2.11c1.18,0,2.11-0.92,2.11-2.11
					c0-1.17-0.96-2.11-2.11-2.11C2420.04,1308.56,2419.1,1309.51,2419.1,1310.68z"/>
			</g>
			<g>
				<path class="st1" d="M2427.24,1293.49c0,1.83-1.49,3.32-3.32,3.32s-3.32-1.49-3.32-3.32c0-1.83,1.49-3.31,3.32-3.31
					S2427.24,1291.65,2427.24,1293.49z M2421.8,1293.49c0,1.17,0.95,2.11,2.12,2.11c1.18,0,2.12-0.93,2.12-2.11
					c0-1.16-0.96-2.11-2.12-2.11C2422.75,1291.38,2421.8,1292.33,2421.8,1293.49z"/>
			</g>
			<g>
				<path class="st1" d="M2427.24,1324.97c0,1.83-1.49,3.32-3.32,3.32c-1.83-0.01-3.32-1.5-3.32-3.32c0-1.83,1.49-3.31,3.32-3.31
					S2427.24,1323.14,2427.24,1324.97z M2421.8,1324.97c0,1.16,0.95,2.1,2.12,2.11c1.16,0,2.12-0.94,2.12-2.11
					c0-1.18-0.94-2.11-2.12-2.11C2422.75,1322.87,2421.8,1323.82,2421.8,1324.97z"/>
			</g>
			<g>
				<path class="st1" d="M2438.04,1324.52c0,1.83-1.49,3.32-3.32,3.32c-1.82,0-3.3-1.49-3.3-3.32c0-1.83,1.48-3.31,3.3-3.31
					C2436.55,1321.21,2438.04,1322.69,2438.04,1324.52z M2432.63,1324.52c0,1.17,0.93,2.12,2.1,2.12c1.16,0,2.11-0.95,2.11-2.12
					c0-1.18-0.93-2.11-2.11-2.11C2433.56,1322.42,2432.63,1323.37,2432.63,1324.52z"/>
			</g>
			<g>
				<path class="st1" d="M2438.04,1374.25c0,1.83-1.49,3.31-3.32,3.31c-1.82,0-3.3-1.48-3.3-3.31c0-1.83,1.48-3.32,3.3-3.32
					C2436.55,1370.92,2438.04,1372.41,2438.04,1374.25z M2432.63,1374.25c0,1.16,0.93,2.1,2.1,2.1c1.16,0,2.11-0.94,2.11-2.1
					c0-1.19-0.93-2.12-2.11-2.12C2433.56,1372.13,2432.63,1373.07,2432.63,1374.25z"/>
			</g>
			<g>
				<path class="st1" d="M2424.52,1360.93c0,1.83-1.49,3.32-3.32,3.32c-1.82,0-3.3-1.49-3.3-3.32c0-1.83,1.48-3.32,3.3-3.32
					C2423.03,1357.61,2424.52,1359.1,2424.52,1360.93z M2419.1,1360.93c0,1.17,0.94,2.11,2.1,2.11c1.16,0,2.11-0.94,2.11-2.11
					c0-1.18-0.96-2.12-2.11-2.12C2420.04,1358.81,2419.1,1359.76,2419.1,1360.93z"/>
			</g>
			<g>
				<path class="st1" d="M2451.57,1360.93c0,1.83-1.49,3.32-3.32,3.32c-1.83,0-3.32-1.49-3.32-3.32c0-1.83,1.49-3.31,3.32-3.31
					C2450.08,1357.62,2451.57,1359.1,2451.57,1360.93z M2446.13,1360.93c0,1.17,0.94,2.11,2.12,2.11c1.16,0,2.11-0.94,2.11-2.11
					c0-1.19-0.93-2.11-2.11-2.11C2447.08,1358.83,2446.13,1359.77,2446.13,1360.93z"/>
			</g>
			<g>
				<path class="st1" d="M2448.85,1449.09c0,1.84-1.48,3.32-3.3,3.32c-1.83,0-3.32-1.48-3.32-3.32c0-1.83,1.49-3.32,3.32-3.32
					C2447.37,1445.77,2448.85,1447.26,2448.85,1449.09z M2443.44,1449.09c0,1.18,0.96,2.11,2.11,2.11c1.16,0,2.1-0.94,2.1-2.11
					c0-1.16-0.93-2.11-2.1-2.11C2444.39,1446.98,2443.44,1447.93,2443.44,1449.09z"/>
			</g>
			<g>
				<path class="st1" d="M2448.85,1351.92c0,1.83-1.49,3.31-3.32,3.31c-1.82,0-3.29-1.48-3.29-3.31c0-1.83,1.48-3.32,3.29-3.32
					C2447.36,1348.6,2448.85,1350.09,2448.85,1351.92z M2443.44,1351.92c0,1.16,0.93,2.1,2.09,2.1c1.19,0,2.12-0.92,2.12-2.1
					c0-1.18-0.96-2.12-2.12-2.12C2444.37,1349.8,2443.44,1350.75,2443.44,1351.92z"/>
			</g>
			<g>
				<path class="st1" d="M2459.66,1425.7c0,1.83-1.48,3.32-3.3,3.32c-1.83,0-3.32-1.5-3.32-3.32c0-1.83,1.49-3.32,3.32-3.32
					C2458.18,1422.38,2459.66,1423.88,2459.66,1425.7z M2454.25,1425.7c0,1.18,0.96,2.11,2.11,2.11c1.16,0,2.09-0.94,2.09-2.11
					s-0.94-2.11-2.09-2.11C2455.2,1423.59,2454.25,1424.53,2454.25,1425.7z"/>
			</g>
			<g>
				<path class="st1" d="M2459.66,1443.61c0,1.83-1.48,3.32-3.3,3.32c-1.83,0-3.32-1.5-3.32-3.32c0-1.83,1.49-3.32,3.32-3.32
					C2458.18,1440.28,2459.66,1441.78,2459.66,1443.61z M2454.25,1443.61c0,1.18,0.96,2.11,2.11,2.11c1.16,0,2.09-0.94,2.09-2.11
					c0-1.17-0.94-2.11-2.09-2.11C2455.2,1441.49,2454.25,1442.43,2454.25,1443.61z"/>
			</g>
			<g>
				<path class="st1" d="M2438.04,1518.41c0,1.83-1.49,3.32-3.32,3.32c-1.82,0-3.3-1.5-3.3-3.32c0-1.83,1.48-3.32,3.3-3.32
					C2436.55,1515.08,2438.04,1516.58,2438.04,1518.41z M2432.63,1518.41c0,1.17,0.93,2.11,2.1,2.11c1.16,0,2.11-0.94,2.11-2.11
					c0-1.18-0.96-2.11-2.11-2.11C2433.56,1516.3,2432.63,1517.23,2432.63,1518.41z"/>
			</g>
			<g>
				<path class="st1" d="M2427.24,1428.42c0,1.84-1.49,3.32-3.32,3.32s-3.32-1.48-3.32-3.32c0-1.83,1.49-3.32,3.32-3.32
					S2427.24,1426.59,2427.24,1428.42z M2421.8,1428.42c0,1.18,0.95,2.11,2.12,2.11c1.16,0,2.12-0.94,2.12-2.11
					c0-1.16-0.96-2.11-2.12-2.11C2422.75,1426.31,2421.8,1427.26,2421.8,1428.42z"/>
			</g>
			<g>
				<path class="st1" d="M2448.85,1495.94c0,1.84-1.49,3.32-3.32,3.32c-1.82,0-3.29-1.48-3.29-3.32c0-1.83,1.48-3.31,3.29-3.31
					C2447.36,1492.62,2448.85,1494.11,2448.85,1495.94z M2443.44,1495.94c0,1.18,0.93,2.12,2.09,2.12c1.16,0,2.12-0.95,2.12-2.12
					c0-1.16-0.96-2.11-2.12-2.11C2444.37,1493.82,2443.44,1494.77,2443.44,1495.94z"/>
			</g>
			<g>
				<path class="st1" d="M2448.85,1537.96c0,1.84-1.49,3.32-3.32,3.32c-1.82,0-3.29-1.48-3.29-3.32c0-1.83,1.48-3.32,3.29-3.32
					C2447.36,1534.64,2448.85,1536.13,2448.85,1537.96z M2443.44,1537.96c0,1.17,0.93,2.12,2.09,2.12c1.16,0,2.12-0.95,2.12-2.12
					c0-1.16-0.96-2.11-2.12-2.11C2444.37,1535.85,2443.44,1536.8,2443.44,1537.96z"/>
			</g>
			<g>
				<path class="st1" d="M2481.3,1416.93c0,1.83-1.49,3.32-3.32,3.32c-1.83,0-3.32-1.49-3.32-3.32s1.49-3.32,3.32-3.32
					C2479.81,1413.61,2481.3,1415.1,2481.3,1416.93z M2475.86,1416.93c0,1.17,0.96,2.12,2.12,2.12c1.16,0,2.11-0.95,2.11-2.12
					s-0.96-2.12-2.11-2.12C2476.82,1414.81,2475.86,1415.76,2475.86,1416.93z"/>
			</g>
			<g>
				<path class="st1" d="M2467.77,1458.55c0,1.83-1.49,3.32-3.32,3.32s-3.32-1.5-3.32-3.32c0-1.83,1.49-3.32,3.32-3.32
					S2467.77,1456.72,2467.77,1458.55z M2462.33,1458.55c0,1.18,0.96,2.11,2.12,2.11s2.11-0.94,2.11-2.11
					c0-1.18-0.96-2.11-2.11-2.11S2462.33,1457.38,2462.33,1458.55z"/>
			</g>
			<g>
				<path class="st1" d="M2481.27,1467.94c0,1.83-1.48,3.32-3.29,3.32c-1.83,0-3.32-1.5-3.32-3.32c0-1.84,1.49-3.32,3.32-3.32
					C2479.8,1464.62,2481.27,1466.1,2481.27,1467.94z M2475.86,1467.94c0,1.16,0.96,2.11,2.12,2.11c1.16,0,2.09-0.95,2.09-2.11
					c0-1.18-0.93-2.11-2.09-2.11C2476.82,1465.83,2475.86,1466.77,2475.86,1467.94z"/>
			</g>
			<g>
				<path class="st1" d="M2470.47,1509.75c0,1.83-1.48,3.32-3.3,3.32c-1.83,0-3.32-1.5-3.32-3.32c0-1.84,1.49-3.32,3.32-3.32
					C2468.99,1506.43,2470.47,1507.91,2470.47,1509.75z M2465.05,1509.75c0,1.16,0.96,2.11,2.12,2.11c1.16,0,2.1-0.95,2.1-2.11
					c0-1.17-0.94-2.11-2.1-2.11C2466.01,1507.64,2465.05,1508.58,2465.05,1509.75z"/>
			</g>
			<g>
				<path class="st1" d="M2481.27,1526.97c0,1.83-1.48,3.32-3.29,3.32c-1.83,0-3.32-1.5-3.32-3.32c0-1.83,1.49-3.32,3.32-3.32
					C2479.8,1523.64,2481.27,1525.14,2481.27,1526.97z M2475.86,1526.97c0,1.17,0.96,2.11,2.12,2.11c1.16,0,2.09-0.94,2.09-2.11
					c0-1.18-0.93-2.11-2.09-2.11C2476.82,1524.85,2475.86,1525.79,2475.86,1526.97z"/>
			</g>
			<g>
				<path class="st1" d="M2459.66,1565.56c0,1.83-1.48,3.32-3.3,3.32c-1.83,0-3.32-1.5-3.32-3.32s1.49-3.32,3.32-3.32
					C2458.18,1562.24,2459.66,1563.73,2459.66,1565.56z M2454.25,1565.56c0,1.19,0.93,2.11,2.11,2.11c1.16,0,2.09-0.94,2.09-2.11
					c0-1.16-0.94-2.11-2.09-2.11C2455.2,1563.45,2454.25,1564.4,2454.25,1565.56z"/>
			</g>
			<g>
				<path class="st1" d="M2492.11,1463.98c0,1.84-1.48,3.32-3.32,3.32c-1.83,0-3.32-1.48-3.32-3.32c0-1.83,1.49-3.32,3.32-3.32
					C2490.62,1460.65,2492.11,1462.15,2492.11,1463.98z M2486.67,1463.98c0,1.18,0.95,2.11,2.11,2.11c1.18,0,2.11-0.94,2.11-2.11
					c0-1.16-0.94-2.11-2.11-2.11C2487.62,1461.86,2486.67,1462.81,2486.67,1463.98z"/>
			</g>
			<g>
				<path class="st1" d="M2492.11,1553.6c0,1.84-1.48,3.32-3.32,3.32c-1.83,0-3.32-1.48-3.32-3.32c0-1.83,1.49-3.32,3.32-3.32
					C2490.62,1550.27,2492.11,1551.77,2492.11,1553.6z M2486.67,1553.6c0,1.18,0.95,2.11,2.11,2.11c1.18,0,2.11-0.94,2.11-2.11
					c0-1.16-0.94-2.11-2.11-2.11C2487.62,1551.48,2486.67,1552.43,2486.67,1553.6z"/>
			</g>
			<g>
				<path class="st1" d="M2481.27,1452.7c0,1.83-1.48,3.32-3.29,3.32c-1.83,0-3.32-1.5-3.32-3.32s1.49-3.32,3.32-3.32
					C2479.8,1449.38,2481.27,1450.87,2481.27,1452.7z M2475.86,1452.7c0,1.18,0.96,2.11,2.12,2.11c1.16,0,2.09-0.94,2.09-2.11
					s-0.93-2.11-2.09-2.11C2476.82,1450.59,2475.86,1451.52,2475.86,1452.7z"/>
			</g>
			<g>
				<path class="st1" d="M2470.47,1415.73c0,1.83-1.48,3.32-3.3,3.32c-1.83,0-3.32-1.49-3.32-3.32c0-1.83,1.49-3.32,3.32-3.32
					C2468.99,1412.4,2470.47,1413.89,2470.47,1415.73z M2465.05,1415.73c0,1.17,0.96,2.11,2.12,2.11c1.16,0,2.1-0.94,2.1-2.11
					s-0.94-2.12-2.1-2.12C2466.01,1413.61,2465.05,1414.56,2465.05,1415.73z"/>
			</g>
			<g>
				<path class="st1" d="M2470.47,1305.76c0,1.83-1.48,3.31-3.3,3.31c-1.83,0-3.32-1.48-3.32-3.31c0-1.83,1.49-3.32,3.32-3.32
					C2468.99,1302.44,2470.47,1303.93,2470.47,1305.76z M2465.05,1305.76c0,1.18,0.93,2.1,2.12,2.1c1.15,0,2.1-0.94,2.1-2.1
					c0-1.18-0.95-2.12-2.1-2.12C2466,1303.64,2465.05,1304.59,2465.05,1305.76z"/>
			</g>
			<g>
				<rect x="2477.37" y="1265.58" class="st1" width="1.2" height="77.94"/>
			</g>
			<g>
				<rect x="2466.56" y="1265.58" class="st1" width="1.21" height="37.45"/>
			</g>
			<g>
				<polygon class="st1" points="2488.78,1370.92 2488.78,1372.13 2466.56,1372.13 2466.56,1328.72 2455.76,1328.72 
					2455.76,1265.58 2456.97,1265.58 2456.97,1327.51 2467.77,1327.51 2467.77,1370.92 				"/>
			</g>
			<g>
				<polygon class="st1" points="2488.78,1398.61 2488.78,1399.82 2478.58,1399.82 2478.58,1410.72 2466.56,1410.72 
					2466.56,1391.05 2455.76,1391.05 2455.76,1346.78 2444.93,1346.78 2444.93,1265.58 2446.13,1265.58 2446.13,1345.57 
					2456.97,1345.57 2456.97,1389.84 2467.77,1389.84 2467.77,1409.52 2477.37,1409.52 2477.37,1398.61 				"/>
			</g>
			<g>
				<polygon class="st1" points="2435.32,1265.58 2435.32,1311.28 2423.92,1311.28 2423.92,1310.08 2434.12,1310.08 
					2434.12,1265.58 				"/>
			</g>
			<g>
				<rect x="2434.12" y="1326.87" class="st1" width="1.21" height="44.65"/>
			</g>
			<g>
				<polygon class="st1" points="2456.97,1401.33 2456.97,1422.98 2455.76,1422.98 2455.76,1402.54 2444.93,1402.54 
					2444.93,1354.38 2446.13,1354.38 2446.13,1401.33 				"/>
			</g>
			<g>
				<polygon class="st1" points="2489.39,1438.66 2489.39,1459.16 2467.17,1459.16 2467.17,1457.95 2488.18,1457.95 
					2488.18,1439.85 2477.37,1439.85 2477.37,1419.58 2478.58,1419.58 2478.58,1438.66 				"/>
			</g>
			<g>
				<polygon class="st1" points="2478.58,1443.83 2478.58,1449.98 2477.37,1449.98 2477.37,1445.04 2466.56,1445.04 
					2466.56,1418.44 2467.77,1418.44 2467.77,1443.83 				"/>
			</g>
			<g>
				<polygon class="st1" points="2456.97,1446.33 2456.97,1481.86 2444.93,1481.86 2444.93,1468.12 2435.32,1468.12 
					2435.32,1515.69 2434.12,1515.69 2434.12,1466.91 2446.13,1466.91 2446.13,1480.66 2455.76,1480.66 2455.76,1446.33 				"/>
			</g>
			<g>
				<polygon class="st1" points="2456.97,1511.43 2456.97,1523.23 2446.16,1523.23 2446.16,1535.24 2444.95,1535.24 
					2444.95,1522.03 2455.76,1522.03 2455.76,1512.64 2444.93,1512.64 2444.93,1498.67 2446.13,1498.67 2446.13,1511.43 				"/>
			</g>
			<g>
				<polygon class="st1" points="2489.39,1466.87 2489.39,1496.54 2478.58,1496.54 2478.58,1517.8 2489.39,1517.8 2489.39,1550.88 
					2488.18,1550.88 2488.18,1519.01 2477.37,1519.01 2477.37,1495.34 2488.18,1495.34 2488.18,1466.87 				"/>
			</g>
			<g>
				<polygon class="st1" points="2478.58,1470.66 2478.58,1489.68 2467.77,1489.68 2467.77,1507.24 2466.56,1507.24 
					2466.56,1488.47 2477.37,1488.47 2477.37,1470.66 				"/>
			</g>
			<g>
				<polygon class="st1" points="2478.58,1529.69 2478.58,1547.7 2466.56,1547.7 2466.56,1538.99 2456.97,1538.99 2456.97,1562.13 
					2455.76,1562.13 2455.76,1537.78 2467.77,1537.78 2467.77,1546.5 2477.37,1546.5 2477.37,1529.69 				"/>
			</g>
			<g>
				<rect x="2423.31" y="1265.58" class="st1" width="1.21" height="25.2"/>
			</g>
			<g>
				<polygon class="st1" points="2446.16,1423.14 2446.16,1446.33 2444.95,1446.33 2444.95,1424.35 2434.12,1424.35 
					2434.12,1399.37 2423.31,1399.37 2423.31,1377.18 2412.51,1377.18 2412.51,1353.52 2423.31,1353.52 2423.31,1327.63 
					2424.52,1327.63 2424.52,1354.72 2413.71,1354.72 2413.71,1375.97 2424.52,1375.97 2424.52,1398.17 2435.32,1398.17 
					2435.32,1423.14 				"/>
			</g>
			<g>
				<rect x="2467.17" y="1381.71" class="st1" width="21.61" height="1.2"/>
			</g>
			<g>
				<rect x="2423.92" y="1360.33" class="st1" width="21.64" height="1.2"/>
			</g>
			<g>
				<polygon class="st1" points="2435.32,1525.15 2435.32,1568.57 2434.12,1568.57 2434.12,1526.35 2423.31,1526.35 
					2423.31,1492.64 2412.51,1492.64 2412.51,1457.76 2423.31,1457.76 2423.31,1431.24 2424.52,1431.24 2424.52,1458.96 
					2413.71,1458.96 2413.71,1491.41 2424.52,1491.41 2424.52,1525.15 				"/>
			</g>
			<g>
				<rect x="2423.31" y="1466.24" class="st1" width="1.21" height="17.05"/>
			</g>
		</g>
		<g>
			<path class="st1" d="M2405.61,1486.62c0,1.83-1.48,3.31-3.3,3.31c-1.83,0-3.32-1.48-3.32-3.31c0-1.84,1.49-3.32,3.32-3.32
				C2404.13,1483.29,2405.61,1484.78,2405.61,1486.62z M2400.2,1486.62c0,1.18,0.93,2.1,2.11,2.1c1.16,0,2.1-0.95,2.1-2.1
				c0-1.18-0.93-2.12-2.1-2.12C2401.15,1484.49,2400.2,1485.44,2400.2,1486.62z"/>
		</g>
		<g>
			<path class="st1" d="M2427.23,1486.62c0,1.83-1.48,3.31-3.3,3.31c-1.83,0-3.32-1.48-3.32-3.31c0-1.84,1.49-3.32,3.32-3.32
				C2425.75,1483.29,2427.23,1484.78,2427.23,1486.62z M2421.81,1486.62c0,1.18,0.94,2.1,2.12,2.1c1.16,0,2.1-0.95,2.1-2.1
				c0-1.18-0.94-2.12-2.1-2.12C2422.77,1484.49,2421.81,1485.44,2421.81,1486.62z"/>
		</g>
		<g>
			<path class="st1" d="M2427.23,1462.96c0,1.83-1.48,3.3-3.3,3.3c-1.83,0-3.32-1.47-3.32-3.3c0-1.84,1.49-3.32,3.32-3.32
				C2425.75,1459.63,2427.23,1461.12,2427.23,1462.96z M2421.81,1462.96c0,1.18,0.94,2.1,2.12,2.1c1.16,0,2.1-0.95,2.1-2.1
				c0-1.17-0.94-2.12-2.1-2.12C2422.77,1460.83,2421.81,1461.78,2421.81,1462.96z"/>
		</g>
		<g>
			<path class="st1" d="M2512.05,1370.31c0,1.83-1.46,3.31-3.29,3.31c-1.84,0-3.32-1.48-3.32-3.31c0-1.83,1.48-3.32,3.32-3.32
				C2510.59,1366.99,2512.05,1368.48,2512.05,1370.31z M2506.64,1370.31c0,1.19,0.95,2.11,2.12,2.11c1.16,0,2.09-0.94,2.09-2.11
				c0-1.17-0.93-2.11-2.09-2.11C2507.61,1368.19,2506.64,1369.14,2506.64,1370.31z"/>
		</g>
		<g>
			<path class="st1" d="M2512.05,1347.26c0,1.83-1.46,3.31-3.29,3.31c-1.84,0-3.32-1.48-3.32-3.31c0-1.83,1.48-3.32,3.32-3.32
				C2510.59,1343.94,2512.05,1345.43,2512.05,1347.26z M2506.64,1347.26c0,1.18,0.95,2.1,2.12,2.1c1.16,0,2.09-0.94,2.09-2.1
				c0-1.17-0.93-2.12-2.09-2.12C2507.61,1345.14,2506.64,1346.09,2506.64,1347.26z"/>
		</g>
		<g>
			<path class="st1" d="M2597.05,1347.26c0,1.83-1.47,3.31-3.29,3.31c-1.84,0-3.34-1.48-3.34-3.31c0-1.83,1.5-3.32,3.34-3.32
				C2595.58,1343.94,2597.05,1345.43,2597.05,1347.26z M2591.64,1347.26c0,1.18,0.94,2.1,2.12,2.1c1.16,0,2.08-0.94,2.08-2.1
				c0-1.17-0.91-2.12-2.08-2.12S2591.64,1346.09,2591.64,1347.26z"/>
		</g>
		<g>
			<path class="st1" d="M2597.05,1370.29c0,1.83-1.47,3.31-3.29,3.31c-1.84,0-3.34-1.48-3.34-3.31c0-1.83,1.5-3.32,3.34-3.32
				C2595.58,1366.98,2597.05,1368.47,2597.05,1370.29z M2591.64,1370.29c0,1.19,0.94,2.11,2.12,2.11c1.16,0,2.08-0.94,2.08-2.11
				c0-1.17-0.91-2.11-2.08-2.11S2591.64,1369.12,2591.64,1370.29z"/>
		</g>
		<g>
			<path class="st1" d="M2405.61,1462.96c0,1.83-1.48,3.3-3.3,3.3c-1.83,0-3.32-1.47-3.32-3.3c0-1.84,1.49-3.32,3.32-3.32
				C2404.13,1459.63,2405.61,1461.12,2405.61,1462.96z M2400.2,1462.96c0,1.18,0.93,2.1,2.11,2.1c1.16,0,2.1-0.95,2.1-2.1
				c0-1.17-0.93-2.12-2.1-2.12C2401.15,1460.83,2400.2,1461.78,2400.2,1462.96z"/>
		</g>
	</g>
</g>
</svg>
